<svg width="22" height="22" viewBox="0 0 22 22" fill="none" xmlns="http://www.w3.org/2000/svg">
<path d="M5.514 1C4.21 1.129 3.332 1.419 2.676 2.076C1.501 3.253 1.501 5.148 1.501 8.939V12.959C1.501 16.749 1.501 18.645 2.676 19.823C3.851 21.001 5.743 21 9.526 21H11.533C15.316 21 17.208 21 18.383 19.823C19.45 18.753 19.549 17.106 19.558 13.977" stroke="black" stroke-width="1.5" stroke-linecap="round" stroke-linejoin="round"/>
<path d="M9.526 6L10.529 9.5C11.089 10.61 11.792 10.9 13.539 11C14.928 10.966 15.734 10.802 16.422 10.204C16.891 9.796 17.103 9.181 17.206 8.569L17.55 6.5M20.058 4.5V9.5M7.601 3.933C9.188 2.616 10.602 1.909 13.535 1.131C13.8659 1.04364 14.214 1.04536 14.544 1.136C17.14 1.85 18.542 2.484 20.42 3.894C20.5 3.954 20.524 4.066 20.468 4.149C19.855 5.051 18.486 5.782 15.128 7.084C14.4286 7.35313 13.6534 7.34884 12.957 7.072C9.381 5.652 7.737 4.892 7.537 4.103C7.5305 4.07151 7.53306 4.03882 7.54439 4.00873C7.55572 3.97864 7.57535 3.95238 7.601 3.933Z" stroke="black" stroke-width="1.5" stroke-linecap="round" stroke-linejoin="round"/>
</svg>
