<svg width="24" height="24" viewBox="0 0 24 24" fill="none" xmlns="http://www.w3.org/2000/svg">
<mask id="mask0_1_11205" style="mask-type:luminance" maskUnits="userSpaceOnUse" x="0" y="0" width="24" height="24">
<path d="M0 1.90735e-06H24V24H0V1.90735e-06Z" fill="white"/>
</mask>
<g mask="url(#mask0_1_11205)">
<path d="M2.48484 12.0531V10.1939H3.91627C4.12556 9.2798 4.48631 8.42368 4.97006 7.65254L3.957 6.63957L6.58641 4.01016L7.59943 5.02313C8.37052 4.53938 9.22679 4.17882 10.1407 3.96934V2.53791H13.8592V3.96934C14.7731 4.17887 15.6294 4.53943 16.4005 5.02313L17.4136 4.01016L20.0429 6.63957L19.0299 7.65254C19.5137 8.42359 19.8742 9.27995 20.0837 10.1939H21.5151V12.0531" stroke="black" stroke-miterlimit="22.926" stroke-linecap="round" stroke-linejoin="round"/>
<path d="M13.875 12.0531H23.5312M0.468704 12.0531H10.125" stroke="black" stroke-miterlimit="22.926" stroke-linecap="round" stroke-linejoin="round"/>
<path d="M7.18347 19.7808C7.18347 20.592 6.51981 21.2557 5.70859 21.2557H4.71981C3.90868 21.2557 3.24498 20.592 3.24498 19.7808V16.1942C3.24498 15.383 3.90868 14.7193 4.71981 14.7193H5.70859C6.51981 14.7193 7.18347 15.383 7.18347 16.1942M9.41435 21.177V14.798L12.2625 19.875L15.1106 14.798V21.177M20.4325 15.2418C20.1175 14.8006 19.6012 14.5129 19.0177 14.5129C18.0582 14.5129 17.2804 15.2907 17.2804 16.2502C17.2804 17.2097 18.0582 17.9875 19.0177 17.9875C19.9772 17.9875 20.755 18.7653 20.755 19.7248C20.755 20.6842 19.9772 21.4621 19.0177 21.4621C18.3495 21.4621 17.7694 21.0848 17.4788 20.5317" stroke="black" stroke-miterlimit="22.926" stroke-linecap="round" stroke-linejoin="round"/>
<path d="M16.3941 12.0531C16.3941 9.6263 14.4268 7.65901 12 7.65901C9.57317 7.65901 7.60587 9.6263 7.60587 12.0531" stroke="black" stroke-miterlimit="22.926" stroke-linecap="round" stroke-linejoin="round"/>
<path fill-rule="evenodd" clip-rule="evenodd" d="M12 12.5218C12.2582 12.5218 12.4687 12.3113 12.4687 12.0531C12.4687 11.7949 12.2582 11.5843 12 11.5843C11.7418 11.5843 11.5313 11.7949 11.5313 12.0531C11.5313 12.3113 11.7418 12.5218 12 12.5218Z" fill="black"/>
</g>
</svg>
