<svg width="47" height="47" viewBox="0 0 47 47" fill="none" xmlns="http://www.w3.org/2000/svg">
<rect width="47" height="47" rx="23.5" fill="#D9D9D9"/>
<path d="M17.5 22.5C17.5 19.672 17.5 18.257 18.379 17.379C19.257 16.5 20.672 16.5 23.5 16.5H26.5C29.328 16.5 30.743 16.5 31.621 17.379C32.5 18.257 32.5 19.672 32.5 22.5V27.5C32.5 30.328 32.5 31.743 31.621 32.621C30.743 33.5 29.328 33.5 26.5 33.5H23.5C20.672 33.5 19.257 33.5 18.379 32.621C17.5 31.743 17.5 30.328 17.5 27.5V22.5Z" stroke="black" stroke-width="1.5"/>
<path d="M17.5 30.5C16.7044 30.5 15.9413 30.1839 15.3787 29.6213C14.8161 29.0587 14.5 28.2956 14.5 27.5V21.5C14.5 17.729 14.5 15.843 15.672 14.672C16.844 13.501 18.729 13.5 22.5 13.5H26.5C27.2956 13.5 28.0587 13.8161 28.6213 14.3787C29.1839 14.9413 29.5 15.7044 29.5 16.5" stroke="black" stroke-width="1.5"/>
</svg>
