<svg width="36" height="36" viewBox="0 0 36 36" fill="none" xmlns="http://www.w3.org/2000/svg">
<g clip-path="url(#clip0_931_3969)">
<path d="M33.3635 0.00195312H30.6071C29.9253 0.00195312 29.9253 1.05655 30.6071 1.05655H33.3635C34.2358 1.05655 34.9454 1.76622 34.9454 2.63845V4.44497H1.05769V2.63845C1.05769 1.76622 1.76729 1.05655 2.63958 1.05655H27.5173C28.1991 1.05655 28.1991 0.00195312 27.5173 0.00195312H2.63958C1.18579 0.00195312 0.00309131 1.18465 0.00309131 2.63845V25.8671C-0.0715742 27.3398 1.21749 28.5812 2.65906 28.5812H23.6982L23.7099 35.4725C23.7106 35.9413 24.3146 36.1939 24.6386 35.8135L28.2813 31.5355L33.9005 31.7763C34.3794 31.7957 34.6343 31.1917 34.2827 30.8638L31.751 28.5037H33.3634C34.8172 28.5037 35.9999 27.321 35.9999 25.8672V2.63845C36 1.18465 34.8173 0.00195312 33.3635 0.00195312ZM22.7069 5.49957L20.3169 10.8019H5.44017C4.27358 10.8019 3.32451 11.751 3.32451 12.9176V18.5236C3.32451 19.6902 4.27365 20.6392 5.44017 20.6392H9.14188C9.82364 20.6392 9.82364 19.5846 9.14188 19.5846H5.44017C4.85508 19.5846 4.37911 19.1086 4.37911 18.5236V12.9176C4.37911 12.3326 4.85515 11.8565 5.44017 11.8565H30.2687C30.8538 11.8565 31.3298 12.3326 31.3298 12.9176V18.5236C31.3298 19.1086 30.8538 19.5846 30.2687 19.5846H11.9491C11.2673 19.5846 11.2673 20.6392 11.9491 20.6392H15.8827L12.8132 27.449H2.63958C1.76729 27.449 1.05769 26.7393 1.05769 25.8671V5.49957H22.7069ZM28.3986 30.4849L27.471 28.3568C27.1986 27.7318 26.2318 28.1533 26.5043 28.7782L27.4319 30.9064L24.7621 34.0418L24.7443 23.4134L32.5193 30.6615L28.3986 30.4849ZM33.3635 27.449H30.6199L24.5746 21.8133C24.2436 21.5049 23.6869 21.7475 23.6877 22.2L23.6965 27.449H13.97L17.0395 20.6393H30.2687C31.4353 20.6393 32.3843 19.6902 32.3843 18.5236V12.9177C32.3843 11.7511 31.4353 10.802 30.2687 10.802H21.4737L23.8638 5.49964H34.9454V25.8671C34.9454 26.7394 34.2358 27.449 33.3635 27.449Z" fill="black"/>
<path d="M24.7753 18.3297C25.0666 18.3297 25.3026 18.0937 25.3026 17.8024V13.6382C25.2785 12.94 24.272 12.9405 24.248 13.6382V17.8024C24.248 18.0937 24.4841 18.3297 24.7753 18.3297Z" fill="black"/>
<path d="M16.2734 18.2917H18.012C18.7099 18.2677 18.7099 17.2612 18.012 17.2371H16.8007V16.2286H17.8838C18.175 16.2286 18.4111 15.9926 18.4111 15.7013C18.4111 15.41 18.175 15.174 17.8838 15.174H16.8007V14.1654H18.012C18.7092 14.1419 18.7105 13.135 18.012 13.1108H16.2734C15.9822 13.1108 15.7461 13.3469 15.7461 13.6381V17.7644C15.7461 18.0557 15.9821 18.2917 16.2734 18.2917Z" fill="black"/>
<path d="M19.6405 18.0533C19.7548 18.1556 19.8793 18.2067 20.014 18.2065C20.0486 18.2063 20.8648 18.2122 21.1911 18.2065C24.0111 18.1509 24.0214 13.0679 21.1483 13.1109H20.0039C19.7088 13.1109 19.4766 13.3496 19.4766 13.6424V17.6136C19.4812 17.7735 19.5359 17.9202 19.6405 18.0533ZM21.1483 14.1654C22.1733 14.1654 22.2529 15.3084 22.2529 15.6586C22.2529 16.671 21.7103 17.1397 21.1726 17.1491C21.0263 17.1517 20.7713 17.1477 20.5375 17.1491C20.5343 16.1546 20.5338 15.1599 20.532 14.1654H21.1483Z" fill="black"/>
<path d="M10.4388 17.5538C10.626 17.3307 10.5969 16.9981 10.3739 16.8109C10.1508 16.6238 9.81829 16.6528 9.63099 16.8759C8.73529 17.8291 7.13315 16.952 7.16837 15.7205C7.15761 14.4892 8.57914 13.7337 9.59218 14.4308C10.1844 14.8015 10.7472 13.9673 10.1825 13.5569C8.48169 12.3858 6.09605 13.6533 6.11384 15.7205C6.0673 17.9206 8.92969 19.2721 10.4388 17.5538Z" fill="black"/>
<path d="M26.7695 14.1654H27.3875V17.8023C27.4117 18.5005 28.4182 18.5 28.4421 17.8023V14.1654H29.0693C29.7675 14.1413 29.7669 13.1347 29.0693 13.1108H26.7695C26.0713 13.135 26.0719 14.1415 26.7695 14.1654Z" fill="black"/>
<path d="M12.0272 18.3297C12.3184 18.3297 12.5545 18.0937 12.5545 17.8024V16.6416L13.8828 18.1508C14.3397 18.67 15.1207 17.961 14.6745 17.454L13.6233 16.2597C15.4388 15.6893 15.0521 13.1477 13.1352 13.1109C13.134 13.1107 12.0284 13.111 12.0273 13.1109C11.7361 13.1109 11.5 13.3469 11.5 13.6382V17.8024C11.4999 18.0937 11.736 18.3297 12.0272 18.3297ZM13.1352 14.1655C13.4692 14.1655 13.7514 14.4197 13.7514 14.7205C13.7514 15.0213 13.4692 15.2754 13.1352 15.2754C13.0008 15.2754 12.7738 15.2763 12.5606 15.2773C12.5588 14.9067 12.5586 14.5362 12.5576 14.1656H13.1352V14.1655Z" fill="black"/>
<path d="M3.16562 3.31998C3.84422 3.31998 3.84534 2.26538 3.16562 2.26538C2.48702 2.26538 2.4859 3.31998 3.16562 3.31998Z" fill="black"/>
<path d="M5.36674 3.31998C6.04534 3.31998 6.04646 2.26538 5.36674 2.26538C4.68821 2.26538 4.68709 3.31998 5.36674 3.31998Z" fill="black"/>
<path d="M7.56601 3.31998C8.24461 3.31998 8.24573 2.26538 7.56601 2.26538C6.88741 2.26538 6.88629 3.31998 7.56601 3.31998Z" fill="black"/>
</g>
<defs>
<clipPath id="clip0_931_3969">
<rect width="36" height="36" fill="white"/>
</clipPath>
</defs>
</svg>
