<svg width="16" height="16" viewBox="0 0 16 16" fill="none" xmlns="http://www.w3.org/2000/svg">
<path d="M5.33268 9.25637C5.1949 9.25637 5.0749 9.20526 4.97268 9.10304C4.87046 9.00082 4.81935 8.88082 4.81935 8.74304C4.81935 8.60526 4.87046 8.48549 4.97268 8.38371C5.0749 8.28193 5.1949 8.23082 5.33268 8.23037C5.47046 8.22993 5.59046 8.28104 5.69268 8.38371C5.7949 8.48637 5.84602 8.60637 5.84602 8.74371C5.84602 8.88104 5.7949 9.00082 5.69268 9.10304C5.59046 9.20526 5.47046 9.25637 5.33268 9.25637ZM7.99935 9.25637C7.86157 9.25637 7.74157 9.20526 7.63935 9.10304C7.53713 9.00082 7.48602 8.88082 7.48602 8.74304C7.48602 8.60526 7.53713 8.48549 7.63935 8.38371C7.74157 8.28193 7.86157 8.23082 7.99935 8.23037C8.13713 8.22993 8.25713 8.28104 8.35935 8.38371C8.46157 8.48637 8.51268 8.60637 8.51268 8.74371C8.51268 8.88104 8.46157 9.00082 8.35935 9.10304C8.25713 9.20526 8.13713 9.25637 7.99935 9.25637ZM10.666 9.25637C10.5282 9.25637 10.4082 9.20526 10.306 9.10304C10.2038 9.00082 10.1527 8.88082 10.1527 8.74304C10.1527 8.60526 10.2038 8.48549 10.306 8.38371C10.4082 8.28193 10.5282 8.23082 10.666 8.23037C10.8038 8.22993 10.9238 8.28104 11.026 8.38371C11.1282 8.48637 11.1793 8.60637 11.1793 8.74371C11.1793 8.88104 11.1282 9.00082 11.026 9.10304C10.9238 9.20526 10.8038 9.25637 10.666 9.25637ZM3.74335 13.9997C3.43624 13.9997 3.18002 13.897 2.97468 13.6917C2.76935 13.4864 2.66646 13.2302 2.66602 12.923V4.40971C2.66602 4.10304 2.7689 3.84704 2.97468 3.64171C3.18046 3.43637 3.43668 3.33349 3.74335 3.33304H4.92268V2.20504C4.92268 2.10149 4.95668 2.01571 5.02468 1.94771C5.09268 1.87971 5.17824 1.84571 5.28135 1.84571C5.38446 1.84571 5.47024 1.87971 5.53868 1.94771C5.60713 2.01571 5.64113 2.10149 5.64068 2.20504V3.33304H10.41V2.17971C10.41 2.0846 10.4418 2.00504 10.5053 1.94104C10.5689 1.87704 10.6482 1.84526 10.7433 1.84571C10.8385 1.84615 10.9176 1.87793 10.9807 1.94104C11.0438 2.00415 11.0758 2.08349 11.0767 2.17904V3.33304H12.256C12.5627 3.33304 12.8189 3.43593 13.0247 3.64171C13.2305 3.84749 13.3331 4.10371 13.3327 4.41037V12.923C13.3327 13.2297 13.23 13.4859 13.0247 13.6917C12.8193 13.8975 12.5629 14.0002 12.2554 13.9997H3.74335ZM3.74335 13.333H12.256C12.3582 13.333 12.4522 13.2904 12.538 13.205C12.6238 13.1197 12.6665 13.0255 12.666 12.9224V7.07704H3.33268V12.923C3.33268 13.0253 3.37535 13.1193 3.46068 13.205C3.54602 13.2908 3.64002 13.3335 3.74268 13.333M3.33268 6.40971H12.666V4.40971C12.666 4.30749 12.6233 4.21349 12.538 4.12771C12.4527 4.04193 12.3585 3.99926 12.2554 3.99971H3.74335C3.64068 3.99971 3.54646 4.04237 3.46068 4.12771C3.3749 4.21304 3.33224 4.30726 3.33268 4.41037V6.40971Z" fill="#2D2D2D"/>
</svg>
