<svg xmlns="http://www.w3.org/2000/svg" width="90" height="90" viewBox="0 0 90 90">
  <g id="Delete_icon" data-name="Delete icon" transform="translate(-635 -338)">
    <g id="Ellipse_6" data-name="Ellipse 6" transform="translate(635 338)" fill="#fff" stroke="#f30f10" stroke-width="2">
      <circle cx="45" cy="45" r="45" stroke="none"/>
      <circle cx="45" cy="45" r="44" fill="none"/>
    </g>
    <g id="trash" transform="translate(612 359)">
      <path id="Path_28001" data-name="Path 28001" d="M84.811,6.266H76.2V4.7A4.7,4.7,0,0,0,71.5,0H65.231a4.7,4.7,0,0,0-4.7,4.7V6.266H51.916A3.916,3.916,0,0,0,48,10.182v3.133a1.566,1.566,0,0,0,1.566,1.566H87.161a1.566,1.566,0,0,0,1.566-1.566V10.182A3.916,3.916,0,0,0,84.811,6.266ZM63.664,4.7a1.569,1.569,0,0,1,1.566-1.566H71.5A1.569,1.569,0,0,1,73.063,4.7V6.266h-9.4Z" fill="#f30f10"/>
      <path id="Path_28002" data-name="Path 28002" d="M73.854,184a.489.489,0,0,0-.489.513l1.292,27.123a4.693,4.693,0,0,0,4.693,4.476h23.788a4.693,4.693,0,0,0,4.693-4.476l1.292-27.123a.489.489,0,0,0-.489-.513Zm23.657,3.916a1.566,1.566,0,1,1,3.133,0V208.28a1.566,1.566,0,0,1-3.133,0Zm-7.832,0a1.566,1.566,0,1,1,3.133,0V208.28a1.566,1.566,0,0,1-3.133,0Zm-7.832,0a1.566,1.566,0,1,1,3.133,0V208.28a1.566,1.566,0,1,1-3.133,0Z" transform="translate(-22.881 -165.986)" fill="#f30f10"/>
    </g>
  </g>
</svg>
