<svg width="23" height="22" viewBox="0 0 23 22" fill="none" xmlns="http://www.w3.org/2000/svg">
<g clip-path="url(#clip0_1618_1305)">
<path d="M11.4993 7.33301C10.4827 7.33301 9.50766 7.71932 8.78877 8.40695C8.06988 9.09458 7.66602 10.0272 7.66602 10.9997C7.66602 11.9721 8.06988 12.9048 8.78877 13.5924C9.50766 14.28 10.4827 14.6663 11.4993 14.6663C12.516 14.6663 13.491 14.28 14.2099 13.5924C14.9288 12.9048 15.3327 11.9721 15.3327 10.9997C15.3327 10.0272 14.9288 9.09458 14.2099 8.40695C13.491 7.71932 12.516 7.33301 11.4993 7.33301Z" fill="black"/>
<path fill-rule="evenodd" clip-rule="evenodd" d="M6.9 0C5.07001 0 3.31496 0.695355 2.02096 1.9331C0.726962 3.17084 0 4.84957 0 6.6L0 15.4C0 17.1504 0.726962 18.8292 2.02096 20.0669C3.31496 21.3046 5.07001 22 6.9 22H16.1C17.93 22 19.685 21.3046 20.979 20.0669C22.273 18.8292 23 17.1504 23 15.4V6.6C23 4.84957 22.273 3.17084 20.979 1.9331C19.685 0.695355 17.93 0 16.1 0L6.9 0ZM6.13333 11C6.13333 9.63856 6.69875 8.33287 7.70519 7.37019C8.71164 6.4075 10.0767 5.86667 11.5 5.86667C12.9233 5.86667 14.2884 6.4075 15.2948 7.37019C16.3013 8.33287 16.8667 9.63856 16.8667 11C16.8667 12.3614 16.3013 13.6671 15.2948 14.6298C14.2884 15.5925 12.9233 16.1333 11.5 16.1333C10.0767 16.1333 8.71164 15.5925 7.70519 14.6298C6.69875 13.6671 6.13333 12.3614 6.13333 11ZM16.8667 5.86667H18.4V4.4H16.8667V5.86667Z" fill="black"/>
</g>
<defs>
<clipPath id="clip0_1618_1305">
<rect width="23" height="22" fill="white"/>
</clipPath>
</defs>
</svg>
