<svg width="22" height="22" viewBox="0 0 22 22" fill="none" xmlns="http://www.w3.org/2000/svg">
<path d="M11 15.5835V10.0835" stroke="#A4A4A4" stroke-width="1.5" stroke-linecap="round"/>
<path d="M10.9987 6.41691C11.505 6.41691 11.9154 6.82732 11.9154 7.33358C11.9154 7.83984 11.505 8.25024 10.9987 8.25024C10.4924 8.25024 10.082 7.83984 10.082 7.33358C10.082 6.82732 10.4924 6.41691 10.9987 6.41691Z" fill="#A4A4A4"/>
<path d="M6.41536 3.06001C7.80819 2.25401 9.38947 1.83085 10.9987 1.83351C16.0614 1.83351 20.1654 5.93743 20.1654 11.0002C20.1654 16.0629 16.0614 20.1668 10.9987 20.1668C5.93595 20.1668 1.83203 16.0629 1.83203 11.0002C1.83203 9.33093 2.27845 7.76434 3.05853 6.41684" stroke="#A4A4A4" stroke-width="1.5" stroke-linecap="round"/>
</svg>
