<svg width="52" height="52" viewBox="0 0 52 52" fill="none" xmlns="http://www.w3.org/2000/svg">
<path d="M13.0002 15.1666H23.8335C24.4081 15.1666 24.9592 15.3949 25.3656 15.8012C25.7719 16.2076 26.0002 16.7587 26.0002 17.3333C26.0002 17.9079 25.7719 18.459 25.3656 18.8654C24.9592 19.2717 24.4081 19.5 23.8335 19.5H13.0002C12.4255 19.5 11.8744 19.2717 11.4681 18.8654C11.0618 18.459 10.8335 17.9079 10.8335 17.3333C10.8335 16.7587 11.0618 16.2076 11.4681 15.8012C11.8744 15.3949 12.4255 15.1666 13.0002 15.1666ZM28.1668 32.5H39.0002C39.5748 32.5 40.1259 32.7282 40.5322 33.1346C40.9386 33.5409 41.1668 34.092 41.1668 34.6666C41.1668 35.2413 40.9386 35.7924 40.5322 36.1987C40.1259 36.605 39.5748 36.8333 39.0002 36.8333H28.1668C27.5922 36.8333 27.0411 36.605 26.6348 36.1987C26.2284 35.7924 26.0002 35.2413 26.0002 34.6666C26.0002 34.092 26.2284 33.5409 26.6348 33.1346C27.0411 32.7282 27.5922 32.5 28.1668 32.5ZM13.0002 23.8333H39.0002C39.5748 23.8333 40.1259 24.0616 40.5322 24.4679C40.9386 24.8742 41.1668 25.4253 41.1668 26C41.1668 26.5746 40.9386 27.1257 40.5322 27.532C40.1259 27.9384 39.5748 28.1666 39.0002 28.1666H13.0002C12.4255 28.1666 11.8744 27.9384 11.4681 27.532C11.0618 27.1257 10.8335 26.5746 10.8335 26C10.8335 25.4253 11.0618 24.8742 11.4681 24.4679C11.8744 24.0616 12.4255 23.8333 13.0002 23.8333Z" fill="black"/>
</svg>
