<svg width="138" height="138" viewBox="0 0 138 138" fill="none" xmlns="http://www.w3.org/2000/svg">
<path d="M31.6662 119.756H108.094C108.855 119.756 109.474 119.138 109.474 118.376C109.474 117.614 108.855 116.996 108.094 116.996H31.6662C29.3356 116.996 27.4399 115.1 27.4399 112.77V15.725C27.4399 13.3945 29.3356 11.4988 31.6662 11.4988H78.5368C79.2986 11.4988 79.9168 10.8806 79.9168 10.1188C79.9168 9.35689 79.2986 8.73877 78.5368 8.73877H31.6662C27.8137 8.73877 24.6799 11.8725 24.6799 15.725V112.77C24.6799 116.622 27.8137 119.756 31.6662 119.756Z" fill="black"/>
<path d="M80.4181 42.6243C81.18 42.6243 81.7981 42.0061 81.7981 41.2443C81.7981 40.4824 81.18 39.8643 80.4181 39.8643H65.8805C65.1186 39.8643 64.5005 40.4824 64.5005 41.2443C64.5005 42.0061 65.1186 42.6243 65.8805 42.6243H80.4181Z" fill="black"/>
<path d="M34.8665 61.3585C34.8665 62.1204 35.4846 62.7385 36.2465 62.7385H49.9449C50.7068 62.7385 51.3249 62.1204 51.3249 61.3585C51.3249 60.5966 50.7068 59.9785 49.9449 59.9785H36.2465C35.4846 59.9785 34.8665 60.5966 34.8665 61.3585Z" fill="black"/>
<path d="M36.2465 74.5583H45.3629C46.1248 74.5583 46.7429 73.9402 46.7429 73.1783C46.7429 72.4165 46.1248 71.7983 45.3629 71.7983H36.2465C35.4846 71.7983 34.8665 72.4165 34.8665 73.1783C34.8665 73.9402 35.4846 74.5583 36.2465 74.5583Z" fill="black"/>
<path d="M36.2465 86.3816H45.8921C46.654 86.3816 47.2721 85.7635 47.2721 85.0016C47.2721 84.2397 46.654 83.6216 45.8921 83.6216H36.2465C35.4846 83.6216 34.8665 84.2397 34.8665 85.0016C34.8665 85.7635 35.4846 86.3816 36.2465 86.3816Z" fill="black"/>
<path d="M36.2465 98.2053H52.2198C52.9817 98.2053 53.5998 97.5872 53.5998 96.8253C53.5998 96.0634 52.9817 95.4453 52.2198 95.4453H36.2465C35.4846 95.4453 34.8665 96.0634 34.8665 96.8253C34.8665 97.5872 35.4846 98.2053 36.2465 98.2053Z" fill="black"/>
<path d="M76.7273 100.755C89.6621 100.755 100.186 90.2324 100.186 77.2976C100.186 64.3628 89.6621 53.8403 76.7273 53.8403C63.7925 53.8403 53.27 64.3628 53.27 77.2976C53.27 90.2324 63.7925 100.755 76.7273 100.755ZM76.7273 56.6003C88.1402 56.6003 97.4255 65.8848 97.4255 77.2976C97.4255 88.7105 88.1402 97.9949 76.7273 97.9949C65.3145 97.9949 56.03 88.7105 56.03 77.2976C56.03 65.8848 65.3145 56.6003 76.7273 56.6003Z" fill="black"/>
<path d="M63.0018 82.7007C65.9076 84.0616 69.1362 81.927 69.1362 79.0369C69.0408 71.393 69.3616 71.3388 68.8343 70.7948C68.1882 70.1314 66.9138 70.5742 66.9138 71.5686V79.0369C66.9138 80.6055 64.8568 81.7107 63.3932 80.389C62.7121 79.7073 62.1981 79.7349 61.7127 80.1572C60.7765 80.9722 61.8966 82.1822 63.0018 82.7007Z" fill="black"/>
<path d="M82.8105 79.1946C84.3704 75.1391 81.8451 70.3032 77.2089 70.3032C73.6899 70.3032 71.1812 73.1723 71.1812 76.705C71.1812 83.9184 80.4128 85.4305 82.8105 79.1946ZM80.943 76.705C80.943 78.9756 79.5012 80.9728 77.2089 80.9728C74.944 80.9728 73.4929 79.0249 73.4929 76.705C73.4929 70.9982 80.943 71.063 80.943 76.705Z" fill="black"/>
<path d="M86.3858 82.9308H90.8133C93.3917 82.9308 94.9032 81.691 94.9032 79.1427C94.9032 77.6953 94.2701 76.6414 92.741 76.0258C93.7684 75.531 94.2454 74.7136 94.2454 73.6477C94.2454 71.4374 93.0081 70.4829 90.8671 70.4829H86.3858C85.768 70.4829 85.301 70.9452 85.301 71.5678V81.8459C85.301 82.477 85.7767 82.9308 86.3858 82.9308ZM90.8133 80.8852H87.6128V77.4539H90.6892C92.1158 77.4539 92.5914 78.0351 92.5914 79.1427C92.5914 80.3142 91.8956 80.8852 90.8133 80.8852ZM91.9336 74.0392C91.9336 74.8926 91.2879 75.3556 90.5998 75.3556H87.6128V72.5812H90.5469C91.4024 72.5812 91.9336 73.0457 91.9336 74.0392Z" fill="black"/>
<path d="M104.353 93.3243L104.114 93.6082L100.91 90.8823C100.33 90.39 99.4596 90.4592 98.9645 91.0396C98.4704 91.62 98.5414 92.4905 99.1218 92.9847L102.335 95.7186L100.081 98.3897L96.8766 95.6494C96.2962 95.1517 95.4238 95.2209 94.9314 95.8013C94.4355 96.3799 94.5038 97.2514 95.0833 97.7464L98.3071 100.503L98.1146 100.732C97.6137 101.311 97.689 102.262 98.2745 102.756L112.57 114.798C115.257 117.06 119.369 116.713 121.593 113.82C123.612 111.198 123.083 107.236 120.416 104.988L106.378 93.1635C105.799 92.6623 104.877 92.7029 104.353 93.3243ZM119.407 112.137C118.204 113.698 115.914 114.009 114.348 112.687L101.072 101.504L105.606 96.122L118.637 107.099C120.192 108.408 120.537 110.669 119.407 112.137Z" fill="black"/>
<path d="M22.1642 129.258H98.5916C99.3535 129.258 99.9716 128.64 99.9716 127.878C99.9716 127.116 99.3535 126.498 98.5916 126.498H22.1642C19.8337 126.498 17.938 124.602 17.938 122.272V19.6207C17.938 18.8588 17.3199 18.2407 16.558 18.2407C15.7961 18.2407 15.178 18.8588 15.178 19.6207V122.272C15.178 126.124 18.3117 129.258 22.1642 129.258Z" fill="black"/>
<path d="M64.5005 31.9542C64.5005 32.7161 65.1186 33.3342 65.8805 33.3342H80.4181C81.18 33.3342 81.7981 32.7161 81.7981 31.9542C81.7981 31.1923 81.18 30.5742 80.4181 30.5742H65.8805C65.1186 30.5742 64.5005 31.1923 64.5005 31.9542Z" fill="black"/>
<path d="M93.4059 31.7024H95.9808C96.7427 31.7024 97.3608 31.0842 97.3608 30.3224C97.3608 29.5605 96.7427 28.9424 95.9808 28.9424H93.4059C90.9977 28.9424 89.0688 26.9863 89.0799 24.5975L89.1284 13.4237L106.714 30.9955V86.9949C106.714 87.7568 107.333 88.3749 108.094 88.3749C108.856 88.3749 109.474 87.7568 109.474 86.9949V30.3349C109.474 29.8374 109.197 29.4212 108.802 29.1782L88.8193 9.21268C87.9271 8.32042 86.3889 8.95874 86.3828 10.2153L86.3199 24.5849C86.3032 28.5127 89.4757 31.7024 93.4059 31.7024Z" fill="black"/>
<path d="M52.0158 28.1628C52.0158 24.7865 49.2684 22.0391 45.8921 22.0391C42.5157 22.0391 39.7683 24.7865 39.7683 28.1628C39.7683 31.5391 42.5157 34.2866 45.8921 34.2866C49.2684 34.2866 52.0158 31.5391 52.0158 28.1628ZM42.5283 28.1628C42.5283 26.3084 44.0377 24.7991 45.8921 24.7991C47.7464 24.7991 49.2558 26.3084 49.2558 28.1628C49.2558 30.0172 47.7464 31.5266 45.8921 31.5266C44.0377 31.5266 42.5283 30.0172 42.5283 28.1628Z" fill="black"/>
<path d="M35.3875 42.8615C35.3875 46.7706 40.0009 49.8325 45.8911 49.8325C51.7803 49.8325 56.3938 46.7706 56.3938 42.8615C56.3938 38.9524 51.7803 35.8896 45.8911 35.8896C40.0009 35.8896 35.3875 38.9524 35.3875 42.8615ZM45.8911 38.6496C50.4542 38.6496 53.6338 40.8697 53.6338 42.8615C53.6338 44.8534 50.4542 47.0725 45.8911 47.0725C41.3279 47.0725 38.1475 44.8534 38.1475 42.8615C38.1475 40.8697 41.3279 38.6496 45.8911 38.6496Z" fill="black"/>
</svg>
