<svg width="47" height="47" viewBox="0 0 47 47" fill="none" xmlns="http://www.w3.org/2000/svg">
<g clip-path="url(#clip0_931_3861)">
<path d="M9.54687 7.93125V13.2188C9.54687 13.6594 9.84062 13.9531 10.2812 13.9531C10.7219 13.9531 11.0156 13.6594 11.0156 13.2188V7.34375C11.0156 6.90312 10.7219 6.60938 10.2812 6.60938C9.84062 6.60938 9.54687 6.31563 9.54687 5.875V2.9375C9.54687 2.49687 9.84062 2.20312 10.2812 2.20312H11.6766C12.1172 2.20312 12.4109 1.90938 12.4109 1.46875C12.4109 1.02812 12.1172 0.734375 11.6766 0.734375H10.2812C9.03281 0.734375 8.07812 1.68906 8.07812 2.9375V5.875C8.07812 6.82969 8.66562 7.6375 9.54687 7.93125Z" fill="black"/>
<path d="M10.2812 24.2344H19.0938C20.3422 24.2344 21.2969 23.2797 21.2969 22.0312V19.0938C21.2969 18.1391 20.7094 17.3313 19.8281 17.0375V15.4953L21.2234 15.6422C24.8953 16.0828 28.5672 16.2297 32.3125 16.2297C34.6625 16.2297 37.0125 16.1562 39.3625 16.0094C39.8031 16.0094 40.0969 15.6422 40.0234 15.2016C40.0234 14.7609 39.6563 14.4672 39.2156 14.5406C33.2672 14.9812 27.2453 14.8344 21.3703 14.1734L19.8281 14.0266V10.9422L21.3703 10.7953C28.6406 9.9875 36.0578 9.9875 43.2547 10.7953C44.1359 10.8687 44.7969 11.6031 44.7969 12.4844C44.7969 13.3656 44.1359 14.1 43.2547 14.1734L42.5938 14.2469C42.2266 14.3203 41.8594 14.6875 41.9328 15.0547C42.0797 15.7156 42.7406 15.7156 42.7406 15.7156L43.4016 15.6422C45.0172 15.4219 46.2656 14.1 46.2656 12.4844C46.2656 10.8687 45.0172 9.54688 43.4016 9.32656C36.0578 8.51875 28.6406 8.51875 21.2234 9.32656L19.8281 9.47344V7.93125C20.7094 7.6375 21.2969 6.82969 21.2969 5.875V2.9375C21.2969 1.68906 20.3422 0.734375 19.0938 0.734375H14.6875C14.2469 0.734375 13.9531 1.02812 13.9531 1.46875C13.9531 1.90938 14.2469 2.20312 14.6875 2.20312H19.0938C19.5344 2.20312 19.8281 2.49687 19.8281 2.9375V5.875C19.8281 6.31563 19.5344 6.60938 19.0938 6.60938C18.6531 6.60938 18.3594 6.90312 18.3594 7.34375V17.625C18.3594 18.0656 18.6531 18.3594 19.0938 18.3594C19.5344 18.3594 19.8281 18.6531 19.8281 19.0938V22.0312C19.8281 22.4719 19.5344 22.7656 19.0938 22.7656H10.2812C9.84062 22.7656 9.54688 22.4719 9.54688 22.0312V19.0938C9.54688 18.6531 9.84062 18.3594 10.2812 18.3594C10.7219 18.3594 11.0156 18.0656 11.0156 17.625V16.3766C11.0156 15.9359 10.7219 15.6422 10.2812 15.6422C9.84062 15.6422 9.54688 15.9359 9.54688 16.3766V17.0375C8.66562 17.3313 8.07812 18.1391 8.07812 19.0938V22.0312C8.07812 23.2797 9.03281 24.2344 10.2812 24.2344Z" fill="black"/>
<path d="M27.9062 44.7969H27.1719V41.1984C27.1719 39.95 26.1438 38.9219 24.8953 38.9219H24.2344V36.7188C24.2344 35.4703 23.2797 34.5156 22.0312 34.5156H11.75C11.3094 34.5156 11.0156 34.8094 11.0156 35.25C11.0156 35.6906 11.3094 35.9844 11.75 35.9844H22.0312C22.4719 35.9844 22.7656 36.2781 22.7656 36.7188V38.9219H6.60938V36.7188C6.60938 36.2781 6.90312 35.9844 7.34375 35.9844H8.8125C9.25313 35.9844 9.54688 35.6906 9.54688 35.25C9.54688 34.8094 9.25313 34.5156 8.8125 34.5156H7.34375C6.09531 34.5156 5.14062 35.4703 5.14062 36.7188V38.9219H4.47969C3.23125 38.9219 2.20312 39.95 2.20312 41.1984V44.7969H1.46875C1.02812 44.7969 0.734375 45.0906 0.734375 45.5312C0.734375 45.9719 1.02812 46.2656 1.46875 46.2656H16.1562C16.5969 46.2656 16.8906 45.9719 16.8906 45.5312C16.8906 45.0906 16.5969 44.7969 16.1562 44.7969H3.67188V41.1984C3.67188 40.7578 4.03906 40.3906 4.47969 40.3906H24.8953C25.3359 40.3906 25.7031 40.7578 25.7031 41.1984V44.7969H23.5C23.0594 44.7969 22.7656 45.0906 22.7656 45.5312C22.7656 45.9719 23.0594 46.2656 23.5 46.2656H27.9062C28.3469 46.2656 28.6406 45.9719 28.6406 45.5312C28.6406 45.0906 28.3469 44.7969 27.9062 44.7969Z" fill="black"/>
<path d="M20.5625 44.7969H19.0938C18.6531 44.7969 18.3594 45.0906 18.3594 45.5312C18.3594 45.9719 18.6531 46.2656 19.0938 46.2656H20.5625C21.0031 46.2656 21.2969 45.9719 21.2969 45.5312C21.2969 45.0906 21.0031 44.7969 20.5625 44.7969Z" fill="black"/>
<path d="M24.0141 25.4828L25.4828 24.0141C25.7766 23.7203 25.7766 23.2797 25.4828 22.9859C25.1891 22.6922 24.7484 22.6922 24.4547 22.9859L22.9859 24.4547C22.6922 24.7484 22.6922 25.2625 22.9859 25.4828C23.4266 25.85 23.8672 25.6297 24.0141 25.4828Z" fill="black"/>
<path d="M5.36094 25.4828C5.50781 25.6297 5.94844 25.9234 6.38906 25.4828C6.68281 25.1891 6.68281 24.7484 6.38906 24.4547L4.92031 22.9859C4.62656 22.6922 4.18594 22.6922 3.89219 22.9859C3.59844 23.2797 3.59844 23.7203 3.89219 24.0141L5.36094 25.4828Z" fill="black"/>
<path d="M5.36094 30.3297L3.89219 31.7984C3.59844 32.0922 3.59844 32.5328 3.89219 32.8266C4.25937 33.1938 4.77344 32.9734 4.92031 32.8266L6.38906 31.3578C6.68281 31.0641 6.68281 30.6234 6.38906 30.3297C6.09531 30.0359 5.65469 30.0359 5.36094 30.3297Z" fill="black"/>
<path d="M22.9859 31.3578L24.4547 32.8266C24.6016 32.9734 25.0422 33.1938 25.4828 32.8266C25.7766 32.5328 25.7766 32.0922 25.4828 31.7984L24.0141 30.3297C23.7203 30.0359 23.2797 30.0359 22.9859 30.3297C22.6922 30.6234 22.6922 31.0641 22.9859 31.3578Z" fill="black"/>
<path d="M2.9375 28.6406H4.40625C4.84687 28.6406 5.14062 28.3469 5.14062 27.9062C5.14062 27.4656 4.84687 27.1719 4.40625 27.1719H2.9375C2.49687 27.1719 2.20312 27.4656 2.20312 27.9062C2.20312 28.3469 2.49687 28.6406 2.9375 28.6406Z" fill="black"/>
<path d="M27.1719 27.9062C27.1719 27.4656 26.8781 27.1719 26.4375 27.1719H24.9688C24.5281 27.1719 24.2344 27.4656 24.2344 27.9062C24.2344 28.3469 24.5281 28.6406 24.9688 28.6406H26.4375C26.8781 28.6406 27.1719 28.3469 27.1719 27.9062Z" fill="black"/>
<path d="M13.2188 5.14062H15.4219V8.8125C15.4219 9.25313 15.7156 9.54688 16.1562 9.54688C16.5969 9.54688 16.8906 9.25313 16.8906 8.8125V5.14062C16.8906 4.33281 16.2297 3.67188 15.4219 3.67188H13.2188C12.7781 3.67188 12.4844 3.96562 12.4844 4.40625C12.4844 4.84688 12.7781 5.14062 13.2188 5.14062Z" fill="black"/>
<path d="M16.1562 11.0156C15.7156 11.0156 15.4219 11.3094 15.4219 11.75V13.2188C15.4219 13.6594 15.7156 13.9531 16.1562 13.9531C16.5969 13.9531 16.8906 13.6594 16.8906 13.2188V11.75C16.8906 11.3094 16.5969 11.0156 16.1562 11.0156Z" fill="black"/>
<path d="M5.875 41.8594C5.43437 41.8594 5.14062 42.1531 5.14062 42.5938C5.14062 43.0344 5.43437 43.3281 5.875 43.3281H8.8125C9.25313 43.3281 9.54688 43.0344 9.54688 42.5938C9.54688 42.1531 9.25313 41.8594 8.8125 41.8594H5.875Z" fill="black"/>
<path d="M11.75 41.8594C11.3094 41.8594 11.0156 42.1531 11.0156 42.5938C11.0156 43.0344 11.3094 43.3281 11.75 43.3281H13.2188C13.6594 43.3281 13.9531 43.0344 13.9531 42.5938C13.9531 42.1531 13.6594 41.8594 13.2188 41.8594H11.75Z" fill="black"/>
<path d="M26.3636 11.1625C25.923 11.1625 25.6292 11.5297 25.7027 11.9703C25.7027 12.3375 26.0698 12.6313 26.437 12.6313H26.5105C28.8605 12.4844 31.3573 12.4844 33.7808 12.4844C34.2214 12.4844 34.5152 12.1906 34.5152 11.75C34.5152 11.3094 34.2214 11.0156 33.7808 11.0156C31.3573 11.0156 28.8605 11.0156 26.3636 11.1625Z" fill="black"/>
<path d="M45.5312 44.7969H44.65C44.7234 44.5766 44.7969 44.3563 44.7969 44.0625C44.7969 43.475 44.5766 42.9609 44.2094 42.5938C44.5766 42.2266 44.7969 41.7125 44.7969 41.125C44.7969 40.5375 44.5766 40.0234 44.2094 39.6562C44.5766 39.2891 44.7969 38.775 44.7969 38.1875C44.7969 37.6 44.5766 37.0859 44.2094 36.7188C44.5766 36.3516 44.7969 35.8375 44.7969 35.25C44.7969 34.6625 44.5766 34.1484 44.2094 33.7812C44.5766 33.4141 44.7969 32.9 44.7969 32.3125C44.7969 31.0641 43.8422 30.1094 42.5938 30.1094H42.3C43.7687 28.8609 44.7969 27.025 44.7969 24.9688C44.7969 24.5281 44.5031 24.2344 44.0625 24.2344C43.6219 24.2344 43.3281 24.5281 43.3281 24.9688C43.3281 27.8328 41.0516 30.1094 38.1875 30.1094C35.3234 30.1094 33.0469 27.8328 33.0469 24.9688C33.0469 22.1047 35.3234 19.8281 38.1875 19.8281C40.0234 19.8281 41.7125 20.7828 42.6672 22.3984C42.8875 22.7656 43.3281 22.8391 43.6953 22.6922C44.0625 22.4719 44.1359 22.0312 43.9891 21.6641C42.7406 19.6078 40.5375 18.3594 38.1875 18.3594C34.5156 18.3594 31.5781 21.2969 31.5781 24.9688C31.5781 27.025 32.5328 28.8609 34.075 30.1094H33.7812C32.5328 30.1094 31.5781 31.0641 31.5781 32.3125C31.5781 32.9 31.7984 33.4141 32.1656 33.7812C31.7984 34.1484 31.5781 34.6625 31.5781 35.25C31.5781 35.8375 31.7984 36.3516 32.1656 36.7188C31.7984 37.0859 31.5781 37.6 31.5781 38.1875C31.5781 38.775 31.7984 39.2891 32.1656 39.6562C31.7984 40.0234 31.5781 40.5375 31.5781 41.125C31.5781 41.7125 31.7984 42.2266 32.1656 42.5938C31.7984 42.9609 31.5781 43.475 31.5781 44.0625C31.5781 44.3563 31.6516 44.5766 31.725 44.7969H30.8438C30.4031 44.7969 30.1094 45.0906 30.1094 45.5312C30.1094 45.9719 30.4031 46.2656 30.8438 46.2656H45.5312C45.9719 46.2656 46.2656 45.9719 46.2656 45.5312C46.2656 45.0906 45.9719 44.7969 45.5312 44.7969ZM42.5938 44.7969H33.7812C33.3406 44.7969 33.0469 44.5031 33.0469 44.0625C33.0469 43.6219 33.3406 43.3281 33.7812 43.3281H42.5938C43.0344 43.3281 43.3281 43.6219 43.3281 44.0625C43.3281 44.5031 43.0344 44.7969 42.5938 44.7969ZM41.125 40.3906H42.5938C43.0344 40.3906 43.3281 40.6844 43.3281 41.125C43.3281 41.5656 43.0344 41.8594 42.5938 41.8594H33.7812C33.3406 41.8594 33.0469 41.5656 33.0469 41.125C33.0469 40.6844 33.3406 40.3906 33.7812 40.3906H38.1875C38.6281 40.3906 38.9219 40.0969 38.9219 39.6562C38.9219 39.2156 38.6281 38.9219 38.1875 38.9219H33.7812C33.3406 38.9219 33.0469 38.6281 33.0469 38.1875C33.0469 37.7469 33.3406 37.4531 33.7812 37.4531H42.5938C43.0344 37.4531 43.3281 37.7469 43.3281 38.1875C43.3281 38.6281 43.0344 38.9219 42.5938 38.9219H41.125C40.6844 38.9219 40.3906 39.2156 40.3906 39.6562C40.3906 40.0969 40.6844 40.3906 41.125 40.3906ZM38.1875 34.5156H42.5938C43.0344 34.5156 43.3281 34.8094 43.3281 35.25C43.3281 35.6906 43.0344 35.9844 42.5938 35.9844H33.7812C33.3406 35.9844 33.0469 35.6906 33.0469 35.25C33.0469 34.8094 33.3406 34.5156 33.7812 34.5156H35.25C35.6906 34.5156 35.9844 34.2219 35.9844 33.7812C35.9844 33.3406 35.6906 33.0469 35.25 33.0469H33.7812C33.3406 33.0469 33.0469 32.7531 33.0469 32.3125C33.0469 31.8719 33.3406 31.5781 33.7812 31.5781H42.5938C43.0344 31.5781 43.3281 31.8719 43.3281 32.3125C43.3281 32.7531 43.0344 33.0469 42.5938 33.0469H38.1875C37.7469 33.0469 37.4531 33.3406 37.4531 33.7812C37.4531 34.2219 37.7469 34.5156 38.1875 34.5156Z" fill="black"/>
<path d="M38.1875 22.7656C38.6281 22.7656 38.9219 23.0594 38.9219 23.5C38.9219 23.9406 39.2156 24.2344 39.6562 24.2344C40.0969 24.2344 40.3906 23.9406 40.3906 23.5C40.3906 22.5453 39.8031 21.7375 38.9219 21.4438C38.9219 21.4438 38.9953 20.5625 38.1875 20.5625C37.3797 20.5625 37.4531 21.4438 37.4531 21.4438C36.5719 21.7375 35.9844 22.5453 35.9844 23.5C35.9844 24.7484 36.9391 25.7031 38.1875 25.7031C38.6281 25.7031 38.9219 25.9969 38.9219 26.4375C38.9219 26.8781 38.6281 27.1719 38.1875 27.1719C37.7469 27.1719 37.4531 26.8781 37.4531 26.4375C37.4531 25.9969 37.1594 25.7031 36.7188 25.7031C36.2781 25.7031 35.9844 25.9969 35.9844 26.4375C35.9844 27.3922 36.5719 28.2 37.4531 28.4937C37.4531 28.4937 37.3062 29.375 38.1875 29.375C38.9953 29.375 38.9219 28.4937 38.9219 28.4937C39.8031 28.2 40.3906 27.3922 40.3906 26.4375C40.3906 25.1891 39.4359 24.2344 38.1875 24.2344C37.7469 24.2344 37.4531 23.9406 37.4531 23.5C37.4531 23.0594 37.7469 22.7656 38.1875 22.7656Z" fill="black"/>
</g>
<defs>
<clipPath id="clip0_931_3861">
<rect width="47" height="47" fill="white"/>
</clipPath>
</defs>
</svg>
