<svg width="36" height="36" viewBox="0 0 36 36" fill="none" xmlns="http://www.w3.org/2000/svg">
<path d="M30.3217 5.36559V3.71913C30.3217 2.22619 29.104 1.00854 27.6058 1.00854C26.1128 1.00854 24.8952 2.22619 24.8952 3.71913V5.14852H21.4434V3.71913C21.4434 2.22619 20.2258 1.00854 18.7275 1.00854C17.2346 1.00854 16.0169 2.22619 16.0169 3.71913V5.14852H12.5652V3.71913C12.5652 2.22619 11.3475 1.00854 9.84932 1.00854C8.35638 1.00854 7.13874 2.22619 7.13874 3.71913V5.15912C3.6446 5.24911 0.828125 8.11324 0.828125 11.6285V28.5115C0.828125 32.085 3.73459 34.9915 7.30285 34.9915H28.6911C32.2646 34.9915 35.1711 32.085 35.1711 28.5115V11.6285C35.1711 8.61619 33.1064 6.09089 30.3217 5.36559ZM25.954 3.71913C25.954 2.80853 26.6952 2.06737 27.6058 2.06737C28.5217 2.06737 29.2628 2.80853 29.2628 3.71913V5.18028C29.0723 5.15912 28.8816 5.14852 28.6911 5.14852H25.954V3.71913ZM17.0758 3.71913C17.0758 2.80853 17.817 2.06737 18.7275 2.06737C19.6434 2.06737 20.3846 2.80853 20.3846 3.71913V5.14852H17.0758V3.71913ZM8.19756 3.71913C8.19756 2.80853 8.93872 2.06737 9.84932 2.06737C10.7652 2.06737 11.5064 2.80853 11.5064 3.71913V5.14852H8.19756V3.71913ZM34.1122 28.5115C34.1122 31.5027 31.6823 33.9326 28.6911 33.9326H7.30285C4.31696 33.9326 1.88695 31.5027 1.88695 28.5115V13.9103H34.1122V28.5115ZM34.1122 12.8515H1.88695V11.6285C1.88695 8.63735 4.31696 6.20734 7.30285 6.20734H11.5064V8.235C11.5064 9.01325 10.9611 9.66441 10.2411 9.83913C10.2516 9.73854 10.2675 9.63265 10.2675 9.52676C10.2675 8.36735 9.32518 7.41971 8.1605 7.41971C6.99578 7.41971 6.05342 8.36735 6.05342 9.52676C6.05342 10.6915 6.99578 11.6338 8.1605 11.6338C8.7799 11.6338 9.33048 11.3638 9.71697 10.935C9.7646 10.9403 9.80696 10.9509 9.84932 10.9509C11.3475 10.9509 12.5652 9.73324 12.5652 8.235V6.20734H20.3846V8.235C20.3846 9.05558 19.7864 9.73324 19.0028 9.86029C19.024 9.75441 19.0399 9.64325 19.0399 9.52676C19.0399 8.36735 18.0922 7.41971 16.9276 7.41971C15.7628 7.41971 14.8205 8.36735 14.8205 9.52676C14.8205 10.6915 15.7628 11.6338 16.9276 11.6338C17.5523 11.6338 18.1081 11.3585 18.4946 10.9244C18.574 10.935 18.6481 10.9509 18.7275 10.9509C20.2258 10.9509 21.4434 9.73324 21.4434 8.235V6.20734H28.6911C28.8816 6.20734 29.0723 6.21794 29.2628 6.2391V8.235C29.2628 9.01325 28.7175 9.66441 27.9975 9.83913C28.0081 9.73854 28.024 9.63265 28.024 9.52676C28.024 8.36735 27.0764 7.41971 25.917 7.41971C24.7522 7.41971 23.8099 8.36735 23.8099 9.52676C23.8099 10.6915 24.7522 11.6338 25.917 11.6338C26.5364 11.6338 27.087 11.3638 27.4734 10.935C27.5211 10.9403 27.5634 10.9509 27.6058 10.9509C29.104 10.9509 30.3217 9.73324 30.3217 8.235V6.45618C32.5134 7.14971 34.1122 9.20383 34.1122 11.6285V12.8515ZM8.22402 8.4891C8.7746 8.52087 9.20872 8.97089 9.20872 9.52676C9.20872 9.60619 9.20342 9.67501 9.18756 9.74911C8.67931 9.52676 8.30872 9.05028 8.22402 8.4891ZM8.43047 10.538C8.34048 10.5591 8.25049 10.575 8.1605 10.575C7.57812 10.575 7.11224 10.1038 7.11224 9.52676C7.11224 9.33088 7.1652 9.15087 7.26049 8.99735C7.45107 9.64325 7.86929 10.1885 8.43047 10.538ZM17.1022 8.4997C17.5999 8.58443 17.9811 9.01325 17.9811 9.52676C17.9811 9.58499 17.9705 9.63795 17.9599 9.69088C17.5099 9.45264 17.187 9.01852 17.1022 8.4997ZM17.2664 10.5115C17.1605 10.5485 17.044 10.575 16.9276 10.575C16.3505 10.575 15.8793 10.1038 15.8793 9.52676C15.8793 9.28322 15.964 9.06618 16.1069 8.88616C16.2711 9.56383 16.6946 10.1462 17.2664 10.5115ZM25.9805 8.4891C26.5311 8.52087 26.9652 8.97089 26.9652 9.52676C26.9652 9.60619 26.9599 9.67501 26.944 9.74911C26.4358 9.52676 26.0652 9.05028 25.9805 8.4891ZM26.187 10.538C26.097 10.5591 26.0069 10.575 25.917 10.575C25.3346 10.575 24.8687 10.1038 24.8687 9.52676C24.8687 9.33088 24.9217 9.15087 25.0169 8.99735C25.2075 9.64325 25.6258 10.1885 26.187 10.538Z" fill="black"/>
<path d="M17.9978 15.5032C13.3381 15.5032 9.54688 19.2933 9.54688 23.9515C9.54688 28.6097 13.3381 32.3994 17.9978 32.3994C22.6563 32.3994 26.4462 28.6097 26.4462 23.9515C26.4462 19.2933 22.6563 15.5032 17.9978 15.5032ZM17.9978 31.3405C13.9218 31.3405 10.6057 28.026 10.6057 23.9515C10.6057 19.877 13.9218 16.562 17.9978 16.562C22.0723 16.562 25.3874 19.877 25.3874 23.9515C25.3874 28.026 22.0723 31.3405 17.9978 31.3405Z" fill="black"/>
<path d="M17.9955 21.7987C18.4445 21.7987 18.8101 22.1627 18.8101 22.6104C18.8101 22.903 19.0471 23.1398 19.3395 23.1398C19.6318 23.1398 19.8689 22.903 19.8689 22.6104C19.8689 21.7638 19.2991 21.055 18.5249 20.8252V20.3883C18.5249 20.0957 18.2879 19.8589 17.9955 19.8589C17.7032 19.8589 17.4661 20.0957 17.4661 20.3883V20.8255C16.6935 21.0555 16.125 21.7641 16.125 22.6104C16.125 23.6418 16.9641 24.4809 17.9955 24.4809C18.4445 24.4809 18.8101 24.8449 18.8101 25.2921C18.8101 25.7398 18.4445 26.1038 17.9955 26.1038C17.5481 26.1038 17.1838 25.7398 17.1838 25.2921C17.1838 24.9995 16.9468 24.7627 16.6544 24.7627C16.362 24.7627 16.125 24.9995 16.125 25.2921C16.125 26.1384 16.6935 26.8469 17.4661 27.077V27.5142C17.4661 27.8068 17.7032 28.0436 17.9955 28.0436C18.2879 28.0436 18.5249 27.8068 18.5249 27.5142V27.0772C19.2991 26.8475 19.8689 26.1387 19.8689 25.2921C19.8689 24.2612 19.0285 23.4221 17.9955 23.4221C17.5481 23.4221 17.1838 23.0581 17.1838 22.6104C17.1838 22.1627 17.5481 21.7987 17.9955 21.7987Z" fill="black"/>
<path d="M20.9492 23.9515C20.9492 24.909 21.7283 25.6876 22.6858 25.6876C23.6433 25.6876 24.4222 24.909 24.4222 23.9515C24.4222 22.994 23.6433 22.2148 22.6858 22.2148C21.7283 22.2148 20.9492 22.994 20.9492 23.9515ZM23.3634 23.9515C23.3634 24.3247 23.0594 24.6287 22.6858 24.6287C22.312 24.6287 22.008 24.3247 22.008 23.9515C22.008 23.5777 22.312 23.2737 22.6858 23.2737C23.0594 23.2737 23.3634 23.5777 23.3634 23.9515Z" fill="black"/>
<path d="M13.3089 22.2148C12.3514 22.2148 11.5723 22.994 11.5723 23.9515C11.5723 24.909 12.3514 25.6876 13.3089 25.6876C14.2664 25.6876 15.0455 24.909 15.0455 23.9515C15.0455 22.994 14.2664 22.2148 13.3089 22.2148ZM13.3089 24.6287C12.9351 24.6287 12.6311 24.3247 12.6311 23.9515C12.6311 23.5777 12.9351 23.2737 13.3089 23.2737C13.6827 23.2737 13.9867 23.5777 13.9867 23.9515C13.9867 24.3247 13.6827 24.6287 13.3089 24.6287Z" fill="black"/>
</svg>
