<svg width="36" height="36" viewBox="0 0 36 36" fill="none" xmlns="http://www.w3.org/2000/svg">
<g clip-path="url(#clip0_931_3986)">
<path d="M7.21535 16.4476C7.32297 16.4859 7.4379 16.4991 7.5514 16.4862C7.66489 16.4733 7.77394 16.4347 7.87023 16.3732C7.96652 16.3118 8.04751 16.2292 8.10701 16.1316C8.16651 16.0341 8.20295 15.9243 8.21356 15.8106C8.22416 15.6969 8.20865 15.5822 8.16821 15.4754C8.12777 15.3686 8.06346 15.2724 7.98019 15.1942C7.89692 15.116 7.7969 15.0579 7.68774 15.0243C7.57859 14.9906 7.46319 14.9823 7.35035 15.0001C7.18562 15.026 7.03421 15.106 6.92006 15.2276C6.8059 15.3491 6.73552 15.5053 6.72004 15.6713C6.70455 15.8374 6.74485 16.0038 6.83455 16.1444C6.92425 16.285 7.05825 16.3917 7.21535 16.4476Z" fill="black"/>
<path d="M31.5 17.88V6.75C31.5 5.95435 31.1839 5.19129 30.6213 4.62868C30.0587 4.06607 29.2956 3.75 28.5 3.75H4.5C3.70435 3.75 2.94129 4.06607 2.37868 4.62868C1.81607 5.19129 1.5 5.95435 1.5 6.75V12.135C1.06234 12.2897 0.683249 12.5761 0.414704 12.9547C0.146159 13.3334 0.00130463 13.7858 0 14.25L0 17.25C0.00130463 17.7142 0.146159 18.1667 0.414704 18.5453C0.683249 18.9239 1.06234 19.2103 1.5 19.365V24.75C1.5 25.5457 1.81607 26.3087 2.37868 26.8713C2.94129 27.4339 3.70435 27.75 4.5 27.75H21.63C22.1177 28.8705 22.8719 29.8549 23.8268 30.6175C24.7818 31.3801 25.9086 31.8978 27.1093 32.1255C28.3099 32.3532 29.5481 32.2841 30.7159 31.9241C31.8838 31.5642 32.946 30.9243 33.8101 30.0602C34.6743 29.196 35.3142 28.1338 35.6741 26.9659C36.0341 25.7981 36.1032 24.5599 35.8755 23.3593C35.6478 22.1586 35.1301 21.0318 34.3675 20.0768C33.6049 19.1219 32.6205 18.3677 31.5 17.88ZM21.345 22.5H3V19.5H7.5C8.49456 19.5 9.44839 19.1049 10.1516 18.4017C10.8549 17.6984 11.25 16.7446 11.25 15.75C11.25 14.7554 10.8549 13.8016 10.1516 13.0984C9.44839 12.3951 8.49456 12 7.5 12H3V9H30V17.4C28.182 17.0289 26.291 17.3449 24.6925 18.2868C23.0939 19.2288 21.9013 20.7299 21.345 22.5ZM4.5 5.25H28.5C28.8978 5.25 29.2794 5.40804 29.5607 5.68934C29.842 5.97064 30 6.35218 30 6.75V7.5H3V6.75C3 6.35218 3.15804 5.97064 3.43934 5.68934C3.72064 5.40804 4.10217 5.25 4.5 5.25ZM1.5 14.25C1.5 14.0511 1.57902 13.8603 1.71967 13.7197C1.86032 13.579 2.05109 13.5 2.25 13.5H7.5C8.09674 13.5 8.66903 13.7371 9.09099 14.159C9.51295 14.581 9.75 15.1533 9.75 15.75C9.75 16.3467 9.51295 16.919 9.09099 17.341C8.66903 17.7629 8.09674 18 7.5 18H2.25C2.05109 18 1.86032 17.921 1.71967 17.7803C1.57902 17.6397 1.5 17.4489 1.5 17.25V14.25ZM4.5 26.25C4.10217 26.25 3.72064 26.092 3.43934 25.8107C3.15804 25.5294 3 25.1478 3 24.75V24H21.0375C20.9625 24.7514 21.0004 25.5098 21.15 26.25H4.5ZM28.5 30.75C27.3133 30.75 26.1533 30.3981 25.1666 29.7388C24.1799 29.0795 23.4108 28.1425 22.9567 27.0461C22.5026 25.9497 22.3838 24.7433 22.6153 23.5795C22.8468 22.4156 23.4182 21.3465 24.2574 20.5074C25.0965 19.6682 26.1656 19.0968 27.3295 18.8653C28.4933 18.6338 29.6997 18.7526 30.7961 19.2067C31.8925 19.6608 32.8295 20.4299 33.4888 21.4166C34.1481 22.4033 34.5 23.5633 34.5 24.75C34.5 26.3413 33.8679 27.8674 32.7426 28.9926C31.6174 30.1179 30.0913 30.75 28.5 30.75Z" fill="black"/>
<path d="M29.25 24.4425V21C29.25 20.8011 29.171 20.6103 29.0303 20.4697C28.8897 20.329 28.6989 20.25 28.5 20.25C28.3011 20.25 28.1103 20.329 27.9697 20.4697C27.829 20.6103 27.75 20.8011 27.75 21V24.75C27.75 25.17 27.8475 25.155 29.8425 27.1575C29.9124 27.2274 29.9954 27.2829 30.0868 27.3207C30.1782 27.3586 30.2761 27.3781 30.375 27.3781C30.4739 27.3781 30.5718 27.3586 30.6632 27.3207C30.7546 27.2829 30.8376 27.2274 30.9075 27.1575C30.9774 27.0876 31.0329 27.0046 31.0707 26.9132C31.1086 26.8218 31.1281 26.7239 31.1281 26.625C31.1281 26.5261 31.1086 26.4282 31.0707 26.3368C31.0329 26.2454 30.9774 26.1624 30.9075 26.0925L29.25 24.4425Z" fill="black"/>
</g>
<defs>
<clipPath id="clip0_931_3986">
<rect width="36" height="36" fill="white"/>
</clipPath>
</defs>
</svg>
