<svg width="138" height="138" viewBox="0 0 138 138" fill="none" xmlns="http://www.w3.org/2000/svg">
<path d="M68.9992 22.616C70.3595 22.616 71.6892 22.2126 72.8203 21.4569C73.9513 20.7011 74.8328 19.6268 75.3532 18.37C75.8737 17.1132 76.0098 15.7303 75.7442 14.3962C75.4787 13.0621 74.8235 11.8366 73.8615 10.8749C72.8994 9.91317 71.6738 9.25834 70.3396 8.99321C69.0054 8.72809 67.6225 8.8646 66.3658 9.38546C65.1092 9.90632 64.0353 10.7881 63.2798 11.9194C62.5244 13.0507 62.1214 14.3805 62.1218 15.7408C62.1244 17.5638 62.8499 19.3114 64.1391 20.6003C65.4284 21.8891 67.1762 22.6141 68.9992 22.616ZM68.9992 12.6348C69.613 12.6348 70.213 12.8168 70.7234 13.1577C71.2338 13.4987 71.6316 13.9833 71.8666 14.5504C72.1016 15.1174 72.1632 15.7414 72.0436 16.3434C71.924 16.9455 71.6286 17.4986 71.1948 17.9327C70.7609 18.3669 70.208 18.6627 69.6061 18.7827C69.0041 18.9027 68.3801 18.8416 67.8129 18.607C67.2457 18.3724 66.7607 17.9749 66.4194 17.4647C66.0781 16.9546 65.8957 16.3547 65.8953 15.7408C65.8955 14.9175 66.2226 14.128 66.8046 13.5456C67.3865 12.9632 68.1759 12.6356 68.9992 12.6348Z" fill="black"/>
<path d="M44.675 80.4286H30.8997C30.3994 80.4286 29.9195 80.6274 29.5656 80.9812C29.2118 81.3351 29.013 81.8149 29.013 82.3153V84.7799C23.3366 85.2944 18.0565 87.9084 14.2058 92.1106C10.3552 96.3128 8.21118 101.801 8.19336 107.5V133.688C8.19336 134.188 8.39214 134.668 8.74597 135.022C9.09979 135.376 9.57969 135.575 10.0801 135.575H127.919C128.42 135.575 128.899 135.376 129.253 135.022C129.607 134.668 129.806 134.188 129.806 133.688V107.5C129.787 101.801 127.643 96.3142 123.792 92.1127C119.942 87.9112 114.662 85.2975 108.986 84.7832V82.3186C108.986 81.8182 108.787 81.3383 108.434 80.9845C108.08 80.6306 107.6 80.4318 107.099 80.4318H93.3243C93.0765 80.4317 92.8311 80.4804 92.6021 80.5752C92.3731 80.6699 92.1651 80.8089 91.9898 80.9841C91.8146 81.1594 91.6756 81.3674 91.5809 81.5964C91.4861 81.8254 91.4374 82.0708 91.4375 82.3186V84.6764H87.8797C86.8523 83.773 83.8529 80.5688 82.2099 73.0747C89.5239 67.6744 94.0229 58.1384 94.0229 47.8261C94.0214 45.0691 93.6895 42.3222 93.0342 39.6442C94.9752 38.3532 96.5882 36.6272 97.745 34.6035C98.9018 32.5797 99.5706 30.314 99.6981 27.9865L102.805 24.8793C104.008 23.6829 104.962 22.2597 105.611 20.6923C106.26 19.1248 106.592 17.4442 106.587 15.7476C106.587 8.122 100.08 2.42627 92.6882 2.42627L45.311 2.42627C37.927 2.42627 31.4119 8.11661 31.4119 15.7476C31.4072 17.4442 31.739 19.1248 32.3882 20.6923C33.0374 22.2597 33.991 23.6829 35.1939 24.8793L38.3011 27.9865C38.4286 30.314 39.0974 32.5797 40.2542 34.6035C41.4111 36.6272 43.0241 38.3532 44.965 39.6442C44.3097 42.3222 43.9778 45.0691 43.9763 47.8261C43.9763 58.1082 48.4484 67.6205 55.7861 73.0726C54.1452 80.5451 51.1351 83.7708 50.1109 84.6764H46.5617V82.3186C46.5622 82.0705 46.5139 81.8247 46.4193 81.5954C46.3247 81.366 46.1858 81.1576 46.0105 80.982C45.8353 80.8065 45.6271 80.6672 45.3979 80.5723C45.1687 80.4773 44.923 80.4285 44.675 80.4286ZM32.7865 84.202H42.7882V88.9188H32.7865V84.202ZM64.4769 111.479L69.005 105.01L73.5277 111.479L71.765 115.791H66.2396L64.4769 111.479ZM75.3357 107.49L71.5429 102.07L81.9285 93.434L75.3357 107.49ZM66.4563 102.07L62.6635 107.49L56.0707 93.4276L66.4563 102.07ZM64.5588 131.808L66.5738 119.565H71.4254L73.4404 131.805L64.5588 131.808ZM97.5494 131.808H85.4044V125.244H97.5494V131.808ZM95.211 84.202H105.213V88.9188H95.211V84.202ZM93.3221 92.6977H107.101C107.601 92.6977 108.081 92.4989 108.435 92.1451C108.788 91.7912 108.987 91.3113 108.987 90.811V88.5566C113.661 89.0654 117.983 91.2788 121.127 94.7735C124.272 98.2682 126.018 102.799 126.032 107.5V131.801H109.116V110.122C109.116 109.622 108.917 109.142 108.563 108.788C108.209 108.434 107.729 108.236 107.229 108.236C106.728 108.236 106.249 108.434 105.895 108.788C105.541 109.142 105.342 109.622 105.342 110.122V131.801H101.323V123.351C101.323 122.851 101.124 122.371 100.77 122.017C100.416 121.663 99.9365 121.464 99.4362 121.464H83.5176C83.0173 121.464 82.5374 121.663 82.1835 122.017C81.8297 122.371 81.6309 122.851 81.6309 123.351V131.801H77.2634L74.9746 117.893C80.1776 105.148 75.5686 116.58 88.4296 88.4488H91.4354V90.8099C91.4352 91.0577 91.4839 91.3032 91.5787 91.5322C91.6735 91.7613 91.8124 91.9694 91.9876 92.1447C92.1628 92.32 92.3709 92.4591 92.5998 92.554C92.8288 92.6488 93.0742 92.6977 93.3221 92.6977ZM35.1853 15.7476C35.1853 10.2276 39.9948 6.19971 45.311 6.19971L92.6882 6.19971C98.0109 6.19971 102.814 10.2341 102.814 15.7476C102.818 16.9493 102.583 18.1398 102.124 19.2502C101.664 20.3605 100.989 21.3687 100.137 22.2163L97.0718 25.2804L40.9274 25.2804L37.8623 22.2099C37.0112 21.363 36.3364 20.3559 35.877 19.2467C35.4175 18.1375 35.1824 16.9482 35.1853 15.7476ZM42.1931 29.0495L95.8083 29.0495C95.3603 31.6586 94.0053 34.0256 91.9823 35.733C89.9593 37.4404 87.3983 38.3785 84.751 38.3817H53.2482C50.6012 38.3782 48.0404 37.4401 46.0176 35.7327C43.9948 34.0253 42.6399 31.6584 42.192 29.0495H42.1931ZM47.7498 47.8261C47.7466 45.6467 47.9732 43.4731 48.4258 41.3412C49.9777 41.8749 51.6071 42.1488 53.2482 42.1519H84.751C86.3922 42.1488 88.0215 41.8749 89.5735 41.3412C90.026 43.4731 90.2526 45.6467 90.2495 47.8261C90.2495 61.0105 81.4918 73.7906 68.9996 73.7831C56.392 73.7744 47.7498 60.9383 47.7498 47.8261ZM59.1779 75.1911C62.2174 76.7555 65.5865 77.5716 69.005 77.5716C72.4235 77.5716 75.7926 76.7555 78.8321 75.1911C80.3544 81.1941 82.7285 84.67 84.3769 86.4866L68.9996 99.2678L53.6277 86.4866C55.2762 84.67 57.6502 81.1941 59.1725 75.1911H59.1779ZM46.5638 88.4499H49.5696L63.0246 117.895L60.7358 131.802H32.6571V110.122C32.6571 109.622 32.4583 109.142 32.1045 108.788C31.7507 108.434 31.2708 108.236 30.7704 108.236C30.27 108.236 29.7901 108.434 29.4363 108.788C29.0824 109.142 28.8837 109.622 28.8837 110.122V131.801H11.9668V107.5C11.9811 102.799 13.7274 98.2682 16.8718 94.7735C20.0163 91.2788 24.3384 89.0654 29.012 88.5566V90.811C29.012 91.3113 29.2107 91.7912 29.5646 92.1451C29.9184 92.4989 30.3983 92.6977 30.8987 92.6977H44.6771C45.1775 92.6977 45.6574 92.4989 46.0112 92.1451C46.3651 91.7912 46.5638 91.3113 46.5638 90.811V88.4499Z" fill="black"/>
<path d="M36.2817 110.123V116.503C36.282 117.003 36.4809 117.483 36.8347 117.837C37.1884 118.19 37.6682 118.389 38.1685 118.39H54.0859C54.5863 118.39 55.0662 118.191 55.42 117.837C55.7738 117.483 55.9726 117.003 55.9726 116.503V110.123C55.9728 109.875 55.9241 109.629 55.8293 109.4C55.7345 109.171 55.5956 108.963 55.4203 108.788C55.2451 108.613 55.0371 108.474 54.8081 108.379C54.5791 108.284 54.3337 108.236 54.0859 108.236H38.1652C37.6654 108.237 37.1863 108.436 36.8332 108.79C36.4801 109.143 36.2817 109.623 36.2817 110.123ZM40.0552 112.009H52.1992V114.616H40.0552V112.009Z" fill="black"/>
</svg>
