<svg width="47" height="47" viewBox="0 0 47 47" fill="none" xmlns="http://www.w3.org/2000/svg">
<rect width="47" height="47" rx="23.5" fill="#D9D9D9"/>
<path d="M28.11 32.5C27.4473 32.5 26.885 32.2683 26.423 31.805C25.9617 31.341 25.731 30.7777 25.731 30.115C25.731 30.015 25.775 29.7627 25.863 29.358L18.666 25.085C18.45 25.3343 18.1857 25.53 17.873 25.672C17.5603 25.814 17.2247 25.885 16.866 25.885C16.2087 25.885 15.65 25.651 15.19 25.183C14.73 24.715 14.5 24.154 14.5 23.5C14.5 22.846 14.73 22.285 15.19 21.817C15.65 21.349 16.2087 21.115 16.866 21.115C17.224 21.115 17.5597 21.186 17.873 21.328C18.1863 21.47 18.4507 21.666 18.666 21.916L25.864 17.661C25.8173 17.5317 25.7837 17.4033 25.763 17.276C25.7417 17.148 25.731 17.0173 25.731 16.884C25.731 16.222 25.9633 15.659 26.428 15.195C26.8927 14.7317 27.4567 14.5 28.12 14.5C28.7833 14.5 29.346 14.7323 29.808 15.197C30.27 15.6617 30.5007 16.2257 30.5 16.889C30.4993 17.5523 30.2677 18.115 29.805 18.577C29.3423 19.039 28.779 19.2697 28.115 19.269C27.7537 19.269 27.4203 19.195 27.115 19.047C26.8097 18.899 26.5497 18.7 26.335 18.45L19.136 22.723C19.1827 22.8523 19.2163 22.981 19.237 23.109C19.2583 23.2363 19.269 23.3667 19.269 23.5C19.269 23.6333 19.2583 23.7637 19.237 23.891C19.2157 24.0183 19.1823 24.147 19.137 24.277L26.335 28.55C26.5503 28.3 26.8103 28.101 27.115 27.953C27.4203 27.805 27.7537 27.731 28.115 27.731C28.7777 27.731 29.341 27.963 29.805 28.427C30.2683 28.8923 30.5 29.4567 30.5 30.12C30.5 30.7833 30.2677 31.346 29.803 31.808C29.3383 32.27 28.7733 32.5007 28.11 32.5Z" fill="black"/>
</svg>
