<svg width="36" height="36" viewBox="0 0 36 36" fill="none" xmlns="http://www.w3.org/2000/svg">
<path d="M34.6586 21.3188C34.3576 20.8047 33.8661 20.43 33.2906 20.2758C32.7152 20.1217 32.1022 20.2006 31.5845 20.4953L26.7841 23.2651C26.6794 23.0166 26.5289 22.7901 26.3403 22.5974C26.1321 22.3877 25.8843 22.2215 25.6113 22.1082C25.3384 21.9949 25.0457 21.9369 24.7501 21.9376H16.3126C16.217 21.9376 16.1229 21.962 16.0393 22.0084L12.3189 24.0784L11.6917 22.3561C11.6666 22.2866 11.628 22.2227 11.5782 22.1682C11.5283 22.1136 11.4683 22.0694 11.4013 22.038C11.3344 22.0067 11.262 21.9888 11.1882 21.9855C11.1144 21.9822 11.0406 21.9934 10.9711 22.0186L5.68363 23.9423C5.61409 23.9675 5.55017 24.0061 5.49556 24.0559C5.44094 24.1058 5.3967 24.1659 5.36535 24.2329C5.334 24.2999 5.31617 24.3724 5.31287 24.4463C5.30958 24.5201 5.32088 24.5939 5.34613 24.6634L5.53851 25.1916L1.84007 26.5394C1.77052 26.5645 1.70661 26.6031 1.652 26.653C1.59738 26.7028 1.55313 26.763 1.52179 26.83C1.49044 26.8969 1.47261 26.9694 1.46931 27.0433C1.46601 27.1172 1.47732 27.191 1.50257 27.2605L4.19751 34.6608C4.22265 34.7302 4.26123 34.7941 4.31105 34.8487C4.36087 34.9032 4.42095 34.9475 4.48787 34.9788C4.55478 35.0101 4.62722 35.028 4.70103 35.0313C4.77485 35.0347 4.8486 35.0234 4.91807 34.9983L8.61876 33.6516L8.81113 34.1798C8.83627 34.2493 8.87485 34.3132 8.92467 34.3677C8.97449 34.4223 9.03458 34.4665 9.10149 34.4979C9.16841 34.5292 9.24084 34.547 9.31466 34.5504C9.38847 34.5537 9.46222 34.5425 9.5317 34.5173L14.8192 32.593C14.8887 32.5679 14.9525 32.5293 15.0071 32.4795C15.0617 32.4296 15.1059 32.3696 15.1372 32.3026C15.1686 32.2357 15.1864 32.1633 15.1898 32.0895C15.1931 32.0157 15.1819 31.9419 15.1567 31.8724L15.0189 31.5001H21.3751C21.4739 31.5001 21.5709 31.4741 21.6564 31.4247L33.8345 24.3934C34.1782 24.1976 34.4635 23.9137 34.6612 23.5711C34.8589 23.2285 34.9619 22.8394 34.9595 22.4438C34.9591 22.049 34.8554 21.6611 34.6586 21.3188ZM5.06263 33.7501L2.75638 27.4073L5.92776 26.2531L8.23682 32.5958L5.06263 33.7501ZM9.67514 33.2686L6.5977 24.8063L10.826 23.2668L13.904 31.7251L9.67514 33.2686ZM33.272 23.4192L21.2244 30.3751H14.6094L12.7076 25.1494L16.4583 23.0626H24.7501C24.8979 23.0622 25.0442 23.0912 25.1807 23.1479C25.3171 23.2046 25.4409 23.2878 25.5449 23.3928C25.6664 23.5138 25.7573 23.6621 25.8099 23.8253C25.855 23.9407 25.8772 24.0637 25.8751 24.1876C25.8751 24.4859 25.7566 24.7721 25.5456 24.9831C25.3347 25.194 25.0485 25.3126 24.7501 25.3126H18.5626V26.4376H24.7501C25.299 26.4358 25.8282 26.2332 26.2377 25.8678C26.6473 25.5025 26.9089 24.9998 26.9731 24.4548L32.1442 21.4701C32.3152 21.3714 32.5091 21.3194 32.7066 21.3194C32.904 21.3194 33.0979 21.3713 33.2689 21.47C33.4399 21.5687 33.582 21.7106 33.6808 21.8815C33.7795 22.0525 33.8316 22.2464 33.8317 22.4438C33.8332 22.6414 33.7821 22.8358 33.6838 23.0072C33.5854 23.1786 33.4433 23.3208 33.272 23.4192Z" fill="black"/>
<path d="M5.625 20.25H30.375C30.8226 20.25 31.2518 20.0722 31.5682 19.7557C31.8847 19.4393 32.0625 19.0101 32.0625 18.5625V2.8125C32.0625 2.36495 31.8847 1.93572 31.5682 1.61926C31.2518 1.30279 30.8226 1.125 30.375 1.125H5.625C5.17745 1.125 4.74822 1.30279 4.43176 1.61926C4.11529 1.93572 3.9375 2.36495 3.9375 2.8125V18.5625C3.9375 19.0101 4.11529 19.4393 4.43176 19.7557C4.74822 20.0722 5.17745 20.25 5.625 20.25ZM30.9375 5.7285C30.7574 5.66188 30.5671 5.62686 30.375 5.625H5.625C5.43294 5.62686 5.24264 5.66188 5.0625 5.7285V5.0625C5.0625 4.91332 5.12176 4.77024 5.22725 4.66475C5.33274 4.55926 5.47582 4.5 5.625 4.5H30.375C30.5242 4.5 30.6673 4.55926 30.7727 4.66475C30.8782 4.77024 30.9375 4.91332 30.9375 5.0625V5.7285ZM5.625 2.25H30.375C30.5242 2.25 30.6673 2.30926 30.7727 2.41475C30.8782 2.52024 30.9375 2.66332 30.9375 2.8125V3.4785C30.7574 3.41188 30.5671 3.37686 30.375 3.375H5.625C5.43294 3.37686 5.24264 3.41188 5.0625 3.4785V2.8125C5.0625 2.66332 5.12176 2.52024 5.22725 2.41475C5.33274 2.30926 5.47582 2.25 5.625 2.25ZM5.0625 7.3125C5.0625 7.16332 5.12176 7.02024 5.22725 6.91475C5.33274 6.80926 5.47582 6.75 5.625 6.75H30.375C30.5242 6.75 30.6673 6.80926 30.7727 6.91475C30.8782 7.02024 30.9375 7.16332 30.9375 7.3125V18.5625C30.9375 18.7117 30.8782 18.8548 30.7727 18.9602C30.6673 19.0657 30.5242 19.125 30.375 19.125H5.625C5.47582 19.125 5.33274 19.0657 5.22725 18.9602C5.12176 18.8548 5.0625 18.7117 5.0625 18.5625V7.3125Z" fill="black"/>
<path d="M18 16.875C18.7788 16.875 19.54 16.6441 20.1876 16.2114C20.8351 15.7788 21.3398 15.1638 21.6378 14.4443C21.9358 13.7248 22.0138 12.9331 21.8618 12.1693C21.7099 11.4055 21.3349 10.7039 20.7842 10.1533C20.2336 9.6026 19.532 9.22759 18.7682 9.07566C18.0044 8.92373 17.2127 9.00171 16.4932 9.29973C15.7737 9.59775 15.1587 10.1024 14.7261 10.7499C14.2934 11.3975 14.0625 12.1587 14.0625 12.9375C14.0637 13.9814 14.4789 14.9823 15.2171 15.7204C15.9552 16.4586 16.9561 16.8738 18 16.875ZM18 10.125C18.5563 10.125 19.1 10.29 19.5625 10.599C20.0251 10.908 20.3855 11.3473 20.5984 11.8612C20.8113 12.3751 20.867 12.9406 20.7585 13.4862C20.6499 14.0318 20.3821 14.5329 19.9887 14.9262C19.5954 15.3196 19.0943 15.5874 18.5487 15.696C18.0031 15.8045 17.4376 15.7488 16.9237 15.5359C16.4098 15.323 15.9705 14.9626 15.6615 14.5C15.3524 14.0375 15.1875 13.4938 15.1875 12.9375C15.1884 12.1919 15.485 11.477 16.0122 10.9498C16.5395 10.4225 17.2544 10.1259 18 10.125Z" fill="black"/>
<path d="M7.875 9.5625H9.5625V8.4375H7.3125C7.16332 8.4375 7.02024 8.49676 6.91475 8.60225C6.80926 8.70774 6.75 8.85082 6.75 9V11.25H7.875V9.5625Z" fill="black"/>
<path d="M28.125 11.25H29.25V9C29.25 8.85082 29.1907 8.70774 29.0852 8.60225C28.9798 8.49676 28.8367 8.4375 28.6875 8.4375H26.4375V9.5625H28.125V11.25Z" fill="black"/>
<path d="M7.3125 17.4375H9.5625V16.3125H7.875V14.625H6.75V16.875C6.75 17.0242 6.80926 17.1673 6.91475 17.2727C7.02024 17.3782 7.16332 17.4375 7.3125 17.4375Z" fill="black"/>
<path d="M29.25 16.875V14.625H28.125V16.3125H26.4375V17.4375H28.6875C28.8367 17.4375 28.9798 17.3782 29.0852 17.2727C29.1907 17.1673 29.25 17.0242 29.25 16.875Z" fill="black"/>
<path d="M24.75 12.375H23.625V13.5H24.75V12.375Z" fill="black"/>
<path d="M12.375 12.375H11.25V13.5H12.375V12.375Z" fill="black"/>
</svg>
