<svg width="139" height="139" viewBox="0 0 139 139" fill="none" xmlns="http://www.w3.org/2000/svg">
<path d="M126.123 4.90186L37.6898 4.90186C33.2318 4.90186 29.6039 8.52975 29.6039 12.9878L29.6039 18.2437C28.55 17.9148 27.4288 17.7396 26.2671 17.7396C20.0571 17.7396 15.0034 22.7933 15.0034 29.0033C15.0034 35.2133 20.0571 40.2671 26.2671 40.2671C27.4288 40.2671 28.55 40.0892 29.6039 39.763L29.6039 41.0083C29.329 40.9894 29.0621 40.9786 28.798 40.9786L23.7335 40.9786C13.0143 40.9786 4.29492 49.6979 4.29492 60.4172L4.29492 77.0015C4.29492 80.4946 7.13578 83.3354 10.6289 83.3354C11.7555 83.3354 12.8121 83.039 13.7285 82.5215L13.7285 112.38C13.7285 116.278 16.9036 119.453 20.8064 119.453C23.0031 119.453 24.968 118.447 26.2671 116.873C27.5662 118.447 29.5311 119.453 31.7278 119.453C35.6306 119.453 38.8057 116.278 38.8057 112.375L38.8057 75.8883L126.123 75.8883C130.581 75.8883 134.209 72.2604 134.209 67.8024L134.209 12.9878C134.209 8.52975 130.581 4.90186 126.123 4.90186ZM18.2378 29.0006C18.2378 24.5722 21.8387 20.9713 26.2671 20.9713C30.6955 20.9713 34.2964 24.5722 34.2964 29.0006C34.2964 33.4263 30.6955 37.03 26.2671 37.03C21.8387 37.03 18.2378 33.4263 18.2378 29.0006ZM36.3772 56.0966C35.8759 56.385 35.5686 56.9187 35.5686 57.4982L35.5686 112.377C35.5686 114.496 33.8436 116.221 31.7251 116.221C29.6066 116.221 27.8816 114.496 27.8816 112.377L27.8816 80.5081C27.8816 79.6159 27.1566 78.8909 26.2644 78.8909C25.3723 78.8909 24.6472 79.6159 24.6472 80.5081L24.6472 112.377C24.6472 114.496 22.9222 116.221 20.8037 116.221C18.6852 116.221 16.9629 114.496 16.9629 112.377L16.9629 56.4012C16.9629 55.509 16.2379 54.784 15.3457 54.784C14.4536 54.784 13.7285 55.509 13.7285 56.4012L13.7285 76.9988C13.7285 78.7076 12.3377 80.0984 10.6289 80.0984C8.92008 80.0984 7.5293 78.7076 7.5293 76.9988L7.5293 60.4145C7.5293 51.4796 14.7986 44.2103 23.7335 44.2103L28.798 44.2103C32.4852 44.2103 37.9702 46.7924 43.1101 50.9513C43.1478 50.9836 43.1883 51.0106 43.2314 51.0402C44.3095 51.7599 45.2664 52.4903 46.2771 53.2638C47.1046 53.8972 47.9617 54.5522 48.9724 55.2719C49.2473 55.4659 49.5735 55.571 49.9077 55.571L59.5839 55.571C61.2927 55.571 62.6835 56.9618 62.6835 58.6706C62.6835 60.3795 61.2927 61.7703 59.5839 61.7703L47.8134 61.7703L37.9917 56.0993C37.4931 55.8055 36.8759 55.8055 36.3772 56.0966ZM130.975 67.8024C130.975 70.4761 128.799 72.6539 126.123 72.6539L38.803 72.6539L38.803 60.2986L46.5736 64.7836C46.8189 64.9265 47.0992 64.9992 47.3822 64.9992L59.5866 64.9992C62.7482 64.9992 65.3734 62.6732 65.8451 59.6437L79.2327 51.9135C80.0062 51.4661 80.2704 50.4769 79.8257 49.7033C79.3782 48.9298 78.3891 48.6656 77.6155 49.1104L65.403 56.1613C64.43 53.9107 62.1902 52.3313 59.5866 52.3313L50.4306 52.3313C49.6382 51.7599 48.932 51.2181 48.2447 50.6925C47.2097 49.9001 46.2313 49.1508 45.0912 48.388C40.9296 45.0351 36.6009 42.6578 32.841 41.5958L32.841 38.1378C35.6791 36.092 37.5308 32.7579 37.5308 29.0006C37.5308 25.2407 35.6791 21.9093 32.841 19.8608L32.841 12.9878C32.841 10.314 35.0161 8.13623 37.6925 8.13623L126.123 8.13623C128.797 8.13623 130.975 10.3113 130.975 12.9878L130.975 67.8024ZM123.177 25.7905C118.14 25.6477 113.905 24.5183 109.45 22.1357C108.973 21.8796 108.401 21.8796 107.924 22.1357C103.469 24.5183 99.2346 25.6477 94.1971 25.7905C93.3211 25.8148 92.6257 26.5317 92.6257 27.4077L92.6257 42.2805C92.6257 46.911 94.8116 50.7734 98.7791 53.1587L107.854 58.6167C108.11 58.7704 108.399 58.8485 108.687 58.8485C108.975 58.8485 109.264 58.7704 109.52 58.6167L118.595 53.1587C122.563 50.7734 124.748 46.9083 124.748 42.2805L124.748 27.4077C124.748 26.5317 124.05 25.8148 123.177 25.7905ZM121.514 42.2778C121.514 45.779 119.929 48.5821 116.929 50.3853L108.687 55.3419L100.445 50.3853C97.4449 48.5821 95.8601 45.779 95.8601 42.2778L95.8601 28.9467C100.426 28.626 104.558 27.4778 108.687 25.3862C112.816 27.4805 116.948 28.6287 121.514 28.9467L121.514 42.2778ZM106.377 42.6039L114.226 34.7551C114.857 34.1244 115.881 34.1244 116.514 34.7551C117.145 35.3858 117.145 36.4101 116.514 37.0408L107.523 46.0323C107.207 46.3477 106.792 46.5067 106.38 46.5067C105.967 46.5067 105.552 46.3477 105.237 46.0323L100.865 41.6605C100.235 41.0298 100.235 40.0056 100.865 39.3749C101.496 38.7442 102.52 38.7442 103.154 39.3749L106.377 42.6039ZM79.7286 22.4861C79.7286 23.3782 79.0036 24.1033 78.1114 24.1033L53.3873 24.1033C52.4952 24.1033 51.7702 23.3782 51.7702 22.4861C51.7702 21.5939 52.4952 20.8689 53.3873 20.8689L78.1114 20.8689C79.0036 20.8689 79.7286 21.5912 79.7286 22.4861ZM79.7286 33.0813C79.7286 33.9735 79.0036 34.6985 78.1114 34.6985L53.3873 34.6985C52.4952 34.6985 51.7702 33.9735 51.7702 33.0813C51.7702 32.1892 52.4952 31.4642 53.3873 31.4642L78.1114 31.4642C79.0036 31.4642 79.7286 32.1892 79.7286 33.0813ZM79.7286 43.6766C79.7286 44.5688 79.0036 45.2938 78.1114 45.2938L53.3873 45.2938C52.4952 45.2938 51.7702 44.5688 51.7702 43.6766C51.7702 42.7845 52.4952 42.0594 53.3873 42.0594L78.1114 42.0594C79.0036 42.0594 79.7286 42.7845 79.7286 43.6766ZM127.786 105.07C129.228 103.03 130.08 100.542 130.08 97.8578C130.08 90.9497 124.46 85.33 117.552 85.33C110.644 85.33 105.024 90.9497 105.024 97.8578C105.024 100.542 105.876 103.03 107.318 105.07C103.515 106.623 100.895 110.348 100.895 114.642L100.895 133.199C100.895 134.091 101.62 134.816 102.512 134.816L132.592 134.816C133.484 134.816 134.209 134.091 134.209 133.199L134.209 114.644C134.209 110.351 131.589 106.623 127.786 105.07ZM117.552 88.5671C122.676 88.5671 126.845 92.7367 126.845 97.8605C126.845 102.984 122.676 107.154 117.552 107.154C112.428 107.154 108.259 102.984 108.259 97.8605C108.259 92.7367 112.428 88.5671 117.552 88.5671ZM130.975 131.582L104.129 131.582L104.129 114.644C104.129 111.243 106.523 108.359 109.795 107.688C111.93 109.378 114.625 110.388 117.552 110.388C120.479 110.388 123.174 109.378 125.309 107.688C128.581 108.361 130.975 111.245 130.975 114.644L130.975 131.582ZM80.4537 105.073C81.8957 103.033 82.7474 100.545 82.7474 97.8605C82.7474 90.9524 77.1277 85.3327 70.2196 85.3327C63.3115 85.3327 57.6918 90.9524 57.6918 97.8605C57.6918 100.545 58.5435 103.033 59.9855 105.073C56.1824 106.626 53.5625 110.351 53.5625 114.644L53.5625 133.199C53.5625 134.091 54.2876 134.816 55.1797 134.816L85.2594 134.816C86.1516 134.816 86.8766 134.091 86.8766 133.199L86.8766 114.644C86.8793 110.351 84.2568 106.623 80.4537 105.073ZM70.2223 88.5671C75.3461 88.5671 79.5157 92.7367 79.5157 97.8605C79.5157 102.984 75.3461 107.154 70.2223 107.154C65.0985 107.154 60.9288 102.984 60.9288 97.8605C60.9288 92.7367 65.0985 88.5671 70.2223 88.5671ZM83.6449 131.582L56.7996 131.582L56.7996 114.644C56.7996 111.243 59.193 108.359 62.4652 107.688C64.5998 109.378 67.2952 110.388 70.2223 110.388C73.1494 110.388 75.842 109.378 77.9794 107.688C81.2515 108.361 83.6449 111.245 83.6449 114.644L83.6449 131.582Z" fill="black"/>
</svg>
