<svg width="50" height="50" viewBox="0 0 50 50" fill="none" xmlns="http://www.w3.org/2000/svg">
<g clip-path="url(#clip0_931_3883)">
<path d="M36.7431 49.2661H13.2598L15.2167 44.3738H34.7862L36.7431 49.2661Z" fill="#FCF5BE"/>
<path d="M22.5547 31.6536H27.4471V44.3737H22.5547V31.6536Z" fill="#FCF5BE"/>
<path d="M22.5547 41.4385H27.4471V44.3739H22.5547V41.4385Z" fill="#F8E868"/>
<path d="M25.0014 32.045C17.4358 32.045 11.3027 25.912 11.3027 18.3464V0.733887H38.7V18.3464C38.7 25.912 32.5669 32.045 25.0014 32.045Z" fill="#FCF5BE"/>
<path d="M25.0014 29.1095C17.4358 29.1095 11.3027 22.9764 11.3027 15.4109V18.3463C11.3027 25.9119 17.4358 32.0449 25.0014 32.0449C32.5669 32.0449 38.7 25.9119 38.7 18.3463V15.4109C38.7 22.9764 32.5669 29.1095 25.0014 29.1095Z" fill="#F8E868"/>
<path d="M5.82244 6.60461H11.3019V3.66919H5.82244C3.01236 3.66919 0.734375 5.94717 0.734375 8.75725C0.734375 14.5936 5.46559 19.3248 11.3019 19.3248V16.3893C7.08682 16.3893 3.6698 12.9723 3.6698 8.75725C3.6698 7.56841 4.63359 6.60461 5.82244 6.60461Z" fill="#FCF5BE"/>
<path d="M44.1787 6.60461H38.6992V3.66919H44.1787C46.9887 3.66919 49.2667 5.94717 49.2667 8.75725C49.2667 14.5936 44.5355 19.3248 38.6992 19.3248V16.3893C42.9143 16.3893 46.3313 12.9723 46.3313 8.75725C46.3313 7.56841 45.3675 6.60461 44.1787 6.60461Z" fill="#FCF5BE"/>
<path d="M24.3361 26.1896C23.7629 26.7628 22.8336 26.7628 22.2604 26.1896L16.0334 19.9626C15.4602 19.3894 15.4602 18.4601 16.0334 17.8869C16.6066 17.3137 17.5359 17.3137 18.109 17.8869L24.3361 24.1139C24.9092 24.6871 24.9092 25.6164 24.3361 26.1896Z" fill="#E9DCC0"/>
<path d="M34.0216 16.5033C33.4484 17.0765 32.5192 17.0765 31.946 16.5033L25.719 10.2763C25.1458 9.70309 25.1458 8.77383 25.719 8.20064C26.2921 7.62745 27.2214 7.62745 27.7946 8.20064L34.0216 14.4277C34.5948 15.0008 34.5948 15.9302 34.0216 16.5033Z" fill="#E9DCC0"/>
<path d="M18.4512 18.2336L26.0608 10.6241L31.595 16.1583L23.9854 23.7679L18.4512 18.2336Z" fill="#E9DCC0"/>
<path d="M21.9102 21.6929L29.5197 14.0833L31.5951 16.1586L23.9855 23.7682L21.9102 21.6929Z" fill="#DECBA0"/>
<path d="M29.0396 18.7175L26.5488 21.2083L34.0071 28.6666C34.8951 27.8909 35.6823 27.0028 36.346 26.0239L29.0396 18.7175Z" fill="#E9DCC0"/>
<path d="M35.0462 24.7231C34.2432 25.5891 33.3299 26.3511 32.3281 26.9865L34.0083 28.6667C34.8962 27.891 35.6834 27.0028 36.3471 26.0239L35.0462 24.7231Z" fill="#DECBA0"/>
<path d="M29.3125 23.9766L31.8029 21.4862L33.8783 23.5615L31.3878 26.0519L29.3125 23.9766Z" fill="#58575B"/>
<path d="M13.8479 24.9625C12.662 22.9681 12.0352 20.6803 12.0352 18.3464V1.46771H31.3601V0H10.5675V2.93542H5.82192C2.61164 2.93542 0 5.54707 0 8.75734C0 10.9547 0.631409 13.0852 1.82583 14.9187L3.05558 14.1175C2.01673 12.523 1.46771 10.6695 1.46771 8.75734C1.46771 6.35636 3.42094 4.40313 5.82192 4.40313H10.5675V5.87084H5.82192C4.23033 5.87084 2.93542 7.16575 2.93542 8.75734C2.93542 13.1229 6.29716 16.716 10.5675 17.0892V18.3464C10.5675 18.4188 10.5701 18.4909 10.5711 18.5632C7.99521 18.3716 5.58748 17.1727 3.87789 15.2069L2.77045 16.17C4.78063 18.4815 7.63092 19.8707 10.669 20.0407C10.9048 22.0427 11.5546 23.9773 12.5865 25.7126L13.8479 24.9625ZM10.5675 15.6161C7.10763 15.2485 4.40313 12.3131 4.40313 8.75734C4.40313 7.97505 5.03963 7.33855 5.82192 7.33855H10.5675V15.6161Z" fill="black"/>
<path d="M48.1738 14.9187C49.3683 13.0852 49.9996 10.9547 49.9996 8.75734C49.9996 5.54706 47.3879 2.93542 44.1776 2.93542H39.432V0H32.8274V1.46771H37.9643V2.93542H33.8058V4.40313H37.9643V5.87084H35.1757V7.33855H37.9643V18.3464C37.9643 20.7154 37.3251 22.9378 36.2108 24.8509L30.0774 18.7174L31.6097 17.185C31.9986 17.4969 32.4775 17.6671 32.9832 17.6671C33.5714 17.6671 34.1242 17.4382 34.54 17.0223C34.9558 16.6065 35.1848 16.0536 35.1848 15.4656C35.1848 14.8775 34.9558 14.3247 34.54 13.9088L31.378 10.7469L30.3403 11.7846L33.5022 14.9466C33.6409 15.0852 33.7172 15.2695 33.7172 15.4655C33.7172 15.6614 33.6409 15.8458 33.5022 15.9844C33.3637 16.123 33.1794 16.1993 32.9833 16.1993C32.7873 16.1993 32.603 16.123 32.4644 15.9844L26.2375 9.75753C26.0989 9.61888 26.0226 9.43454 26.0226 9.23865C26.0226 9.04266 26.0989 8.85832 26.2375 8.71967C26.3762 8.58102 26.5604 8.5047 26.7565 8.5047C26.9526 8.5047 27.1367 8.58102 27.2754 8.71967L29.3026 10.7469L30.3404 9.7091L28.3133 7.682C27.8975 7.26614 27.3447 7.03708 26.7565 7.03708C26.1684 7.03708 25.6155 7.26605 25.1997 7.682C24.7838 8.09785 24.5548 8.65068 24.5548 9.23875C24.5548 9.74432 24.7251 10.2233 25.0369 10.6122L18.4436 17.2056C17.58 16.5147 16.3131 16.5685 15.5133 17.3684C14.6548 18.2267 14.6548 19.6235 15.5133 20.4818L21.7403 26.7088C22.1694 27.1381 22.7332 27.3526 23.297 27.3526C23.8608 27.3526 24.4246 27.1381 24.8538 26.7088C25.6535 25.909 25.7072 24.6421 25.0165 23.7785L26.5489 22.2461L32.9121 28.6093C30.7211 30.3022 27.9762 31.3112 24.9996 31.3112C20.8788 31.3112 17.0956 29.4177 14.62 26.1162L13.4457 26.9968C14.7623 28.7524 16.4882 30.2072 18.4369 31.2038C19.5212 31.7582 20.652 32.1661 21.8194 32.4285V43.6399H14.7179L12.1738 50H17.3964V48.5323H14.3417L15.7116 45.1076H34.2874L35.6573 48.5323H18.8642V50H37.8252L35.2812 43.6399H28.1796V37.5245H26.7119V43.6399H23.2872V32.6797C23.8509 32.7457 24.4221 32.7789 24.9996 32.7789C25.5789 32.7789 26.1502 32.7435 26.7119 32.6768V36.0568H28.1796V32.425C34.0757 31.094 38.6151 26.1437 39.332 20.0406C42.3695 19.8703 45.2192 18.4811 47.229 16.17L46.1216 15.2068C44.4122 17.1724 42.0048 18.3712 39.4293 18.5631C39.4304 18.4909 39.432 18.4188 39.432 18.3463V17.0891C43.7024 16.716 47.0641 13.1229 47.0641 8.75724C47.0641 7.16566 45.7692 5.87074 44.1776 5.87074H39.432V4.40313H44.1776C46.5786 4.40313 48.5319 6.35636 48.5319 8.75734C48.5319 10.6695 47.9828 12.523 46.944 14.1175L48.1738 14.9187ZM23.8158 25.6708C23.6772 25.8095 23.4929 25.8858 23.2969 25.8858C23.1009 25.8858 22.9166 25.8095 22.778 25.6708L16.551 19.4438C16.2649 19.1577 16.2649 18.6922 16.551 18.4061C16.6941 18.263 16.882 18.1915 17.07 18.1915C17.2579 18.1915 17.4458 18.263 17.5889 18.4061L23.8158 24.6331C24.1019 24.9192 24.1019 25.3847 23.8158 25.6708ZM25.511 21.2082L23.9888 22.7304L19.4915 18.2332L26.0644 11.6603L27.1041 12.6999L24.8554 14.9485L25.8932 15.9863L28.1418 13.7377L30.5616 16.1574L29.0395 17.6796L25.511 21.2082ZM27.5865 21.2082L29.0395 19.7553L30.7692 21.485L29.3163 22.938L27.5865 21.2082ZM30.3542 23.9757L31.8071 22.5228L32.9448 23.6605L31.4918 25.1134L30.3542 23.9757ZM34.0237 27.6453L32.5296 26.1512L33.9826 24.6981L35.3843 26.0998C34.972 26.6506 34.5164 27.167 34.0237 27.6453ZM44.1776 7.33855C44.9599 7.33855 45.5964 7.97505 45.5964 8.75734C45.5964 12.3131 42.8919 15.2485 39.432 15.6161V7.33855H44.1776Z" fill="black"/>
<path d="M17.7108 13.454V12.0352H17.8575C19.1254 12.0352 20.157 11.0037 20.157 9.73579C20.157 8.46788 19.1254 7.43638 17.8575 7.43638H16.0963C15.6377 7.43638 15.2646 7.06328 15.2646 6.60467C15.2646 6.14606 15.6377 5.77297 16.0963 5.77297H19.4231V4.30526H17.7108V2.88647H16.2431V4.30526H16.0963C14.8284 4.30526 13.7969 5.33677 13.7969 6.60467C13.7969 7.87258 14.8284 8.90409 16.0963 8.90409H17.8575C18.3162 8.90409 18.6892 9.27718 18.6892 9.73579C18.6892 10.1944 18.3162 10.5675 17.8575 10.5675H14.5307V12.0352H16.2431V13.454H17.7108Z" fill="black"/>
<path d="M30.8711 2.9353H32.3388V4.40301H30.8711V2.9353Z" fill="white"/>
<path d="M22.7754 17.0247L23.8131 15.987L24.8507 17.0247L23.8131 18.0623L22.7754 17.0247Z" fill="white"/>
</g>
<defs>
<clipPath id="clip0_931_3883">
<rect width="50" height="50" fill="white"/>
</clipPath>
</defs>
</svg>
